<?xml version="1.0" encoding="UTF-8" standalone="no"?>
<svg width="19px" height="23px" viewBox="0 0 19 23" version="1.1" xmlns="http://www.w3.org/2000/svg" xmlns:xlink="http://www.w3.org/1999/xlink">
    <!-- Generator: Sketch 40.1 (33804) - http://www.bohemiancoding.com/sketch -->
    <title>Page 1</title>
    <desc>Created with Sketch.</desc>
    <defs>
        <polygon id="path-1" points="0 21.9840621 18.0315121 21.9840621 18.0315121 0.000191164095 0 0.000191164095"></polygon>
    </defs>
    <g id="DASHBOARD" stroke="none" stroke-width="1" fill="none" fill-rule="evenodd">
        <g id="Dashboard" transform="translate(-325.000000, -159.000000)">
            <g id="PROCHAINES-LIVRAISONS" transform="translate(293.000000, 96.000000)">
                <g id="Group-8" transform="translate(18.000000, 52.000000)">
                    <g id="Page-1" transform="translate(14.403226, 11.370968)">
                        <mask id="mask-2" fill="white">
                            <use xlink:href="#path-1"></use>
                        </mask>
                        <g id="Clip-2"></g>
                        <path d="M10.8952823,21.0272858 C10.369375,21.0272858 10.1770161,20.9288363 9.95622984,20.8141379 C9.74397177,20.7042185 9.47959677,20.568492 9.02096774,20.5503314 C8.99159274,20.5493756 8.9641129,20.5503314 8.93568548,20.5541547 C8.52159274,20.5828293 8.27427419,20.7099534 8.0733871,20.8141379 C7.85260081,20.9278805 7.66118952,21.0272858 7.13433468,21.0272858 C3.85949597,21.0272858 0.945685484,15.9499675 0.945685484,11.9469913 C0.945685484,8.23076129 2.67122984,5.7341582 5.23917339,5.7341582 C6.02092742,5.7341582 6.67002016,6.00178794 7.29826613,6.26081529 C7.87060484,6.49690295 8.41072581,6.71960912 9.00012097,6.71960912 L9.02570565,6.71960912 C9.02760081,6.71960912 9.02854839,6.72056494 9.03044355,6.72056494 C9.03328629,6.72056494 9.03612903,6.7186533 9.03897177,6.7186533 C9.62457661,6.71578583 10.1618548,6.4949913 10.7313508,6.26081529 C11.3595968,6.00178794 12.0086895,5.7341582 12.7904435,5.7341582 C15.3583871,5.7341582 17.0839315,8.23076129 17.0839315,11.9469913 C17.0839315,15.9490116 14.170121,21.0272858 10.8952823,21.0272858 M13.2765524,0.984686255 C13.0785081,3.66958597 11.3131653,5.02016031 9.5222379,5.22852917 C9.72028226,2.54362945 11.485625,1.19305512 13.2765524,0.984686255 M12.7904435,4.77929355 C12.7108468,4.77929355 12.6397782,4.79267504 12.5630242,4.79745414 C13.5665121,3.8339871 14.2421371,2.38878654 14.2421371,0.478101403 C14.2421371,0.214294951 14.029879,0.000191164095 13.7683468,0.000191164095 C11.8457056,0.000191164095 9.90695565,1.08887069 9.03518145,3.1897641 C8.65520161,2.0274864 8.10844758,1.13666171 7.62423387,0.364358766 L7.53516129,0.222897335 C7.39681452,-0.000764656382 7.10211694,-0.0667162693 6.88227823,0.0737893408 C6.66054435,0.214294951 6.59516129,0.509643478 6.73445565,0.732349649 L6.82352823,0.8747669 C7.57495968,2.07527742 8.41072581,3.43540996 8.53201613,5.69114628 C8.26100806,5.62041557 7.97389113,5.50667293 7.65834677,5.37572553 C6.97987903,5.09758177 6.20854839,4.77929355 5.24106855,4.77929355 C2.10647177,4.77929355 0,7.66013647 0,11.9479471 C0,15.9891561 2.99625,21.9840621 7.13622984,21.9840621 C7.89145161,21.9840621 8.23258065,21.8072353 8.50737903,21.6657739 C8.68078629,21.5759268 8.7878629,21.5204892 9.01622984,21.5080635 C9.24459677,21.5204892 9.35167339,21.5759268 9.52508065,21.6657739 C9.79893145,21.8072353 10.1410081,21.9840621 10.8962298,21.9840621 C15.0352621,21.9840621 18.0324597,15.9891561 18.0315121,11.9479471 C18.0315121,7.66013647 15.9259879,4.77929355 12.7904435,4.77929355 M5.24012097,6.6909345 C2.92897177,6.6909345 1.89421371,9.33091066 1.89421371,11.9479471 C1.89421371,12.2117536 2.10647177,12.4258574 2.36800403,12.4258574 C2.62953629,12.4258574 2.84179435,12.2117536 2.84179435,11.9479471 C2.84179435,9.80690926 3.58280242,7.64675498 5.24012097,7.64675498 C5.50165323,7.64675498 5.71391129,7.43265119 5.71391129,7.16884474 C5.71391129,6.90503829 5.50165323,6.6909345 5.24012097,6.6909345" id="Fill-1" stroke="#FFFFFF" stroke-width="0.6" fill="#FFFFFF" mask="url(#mask-2)"></path>
                    </g>
                </g>
            </g>
        </g>
    </g>
</svg>