<?xml version="1.0" encoding="UTF-8" standalone="no"?>
<svg width="24px" height="24px" viewBox="0 0 24 24" version="1.1" xmlns="http://www.w3.org/2000/svg" xmlns:xlink="http://www.w3.org/1999/xlink">
    <!-- Generator: Sketch 40.1 (33804) - http://www.bohemiancoding.com/sketch -->
    <title>Group</title>
    <desc>Created with Sketch.</desc>
    <defs></defs>
    <g id="DASHBOARD" stroke="none" stroke-width="1" fill="none" fill-rule="evenodd">
        <g id="Dashboard" transform="translate(-803.000000, -160.000000)" fill="#FFFFFF">
            <g id="PROCHAINES-LIVRAISONS" transform="translate(293.000000, 96.000000)">
                <g id="Group-11" transform="translate(498.000000, 52.000000)">
                    <g id="Group" transform="translate(12.129032, 12.129032)">
                        <path d="M16.9048387,7.88387097 L16.2983871,7.88387097 L16.2983871,7.35322581 C16.2983871,5.68548387 16.9806452,4.09354839 18.1177419,2.88064516 C19.3306452,1.66774194 20.9225806,1.06129032 22.5903226,1.06129032 L23.1967742,1.06129032 L23.1967742,1.66774194 C23.1967742,3.33548387 22.5145161,4.92741935 21.3774194,6.14032258 C20.1645161,7.27741935 18.6483871,7.88387097 16.9048387,7.88387097 L16.9048387,7.88387097 Z" id="Shape"></path>
                        <g transform="translate(10.612903, 0.000000)" id="Shape">
                            <path d="M8.26290323,13.3419355 C6.59516129,13.3419355 5.00322581,12.6596774 3.79032258,11.5225806 L3.41129032,11.1435484 L3.79032258,10.7645161 C5.00322581,9.5516129 6.59516129,8.94516129 8.26290323,8.94516129 C9.93064516,8.94516129 11.5225806,9.62741935 12.7354839,10.7645161 L13.1145161,11.1435484 L12.7354839,11.5225806 C11.5225806,12.6596774 9.93064516,13.3419355 8.26290323,13.3419355 L8.26290323,13.3419355 Z"></path>
                            <path d="M2.57741935,10.3096774 L2.12258065,9.85483871 C0.909677419,8.64193548 0.303225806,7.05 0.303225806,5.38225806 C0.303225806,3.71451613 0.985483871,2.12258065 2.12258065,0.909677419 L2.5016129,0.530645161 L2.88064516,0.909677419 C5.38225806,3.41129032 5.38225806,7.35322581 2.88064516,9.85483871 L2.57741935,10.3096774 L2.57741935,10.3096774 Z"></path>
                        </g>
                        <g transform="translate(6.064516, 4.548387)" id="Shape">
                            <path d="M8.18709677,13.4177419 C6.51935484,13.4177419 4.92741935,12.7354839 3.71451613,11.5983871 L3.33548387,11.2193548 L3.71451613,10.8403226 C4.92741935,9.62741935 6.51935484,9.02096774 8.18709677,9.02096774 C9.85483871,9.02096774 11.4467742,9.70322581 12.6596774,10.8403226 L13.0387097,11.2193548 L12.6596774,11.5983871 C11.4467742,12.7354839 9.85483871,13.4177419 8.18709677,13.4177419 L8.18709677,13.4177419 Z"></path>
                            <path d="M2.5016129,10.3096774 L2.12258065,9.93064516 C0.909677419,8.71774194 0.303225806,7.12580645 0.303225806,5.45806452 C0.303225806,3.79032258 0.985483871,2.1983871 2.12258065,0.985483871 L2.5016129,0.606451613 L2.88064516,0.985483871 C5.38225806,3.48709677 5.38225806,7.42903226 2.88064516,9.93064516 L2.5016129,10.3096774 L2.5016129,10.3096774 Z"></path>
                        </g>
                        <g transform="translate(1.516129, 9.096774)" id="Shape">
                            <path d="M8.18709677,13.4177419 C6.51935484,13.4177419 4.92741935,12.7354839 3.71451613,11.5983871 L3.33548387,11.2193548 L3.71451613,10.8403226 C4.92741935,9.62741935 6.51935484,9.02096774 8.18709677,9.02096774 C9.85483871,9.02096774 11.4467742,9.70322581 12.6596774,10.8403226 L13.0387097,11.2193548 L12.6596774,11.5983871 C11.4467742,12.7354839 9.85483871,13.4177419 8.18709677,13.4177419 L8.18709677,13.4177419 Z"></path>
                            <path d="M2.5016129,10.3854839 L2.12258065,10.0064516 C0.909677419,8.79354839 0.303225806,7.2016129 0.303225806,5.53387097 C0.303225806,3.86612903 0.985483871,2.27419355 2.12258065,1.06129032 L2.5016129,0.682258065 L2.88064516,1.06129032 C5.38225806,3.56290323 5.38225806,7.50483871 2.88064516,10.0064516 L2.5016129,10.3854839 L2.5016129,10.3854839 Z"></path>
                        </g>
                        <rect id="Rectangle-path" transform="translate(2.170392, 22.120019) rotate(45.000000) translate(-2.170392, -22.120019) " x="1.60184884" y="20.4143906" width="1.13708587" height="3.41125761"></rect>
                    </g>
                </g>
            </g>
        </g>
    </g>
</svg>