<?xml version="1.0" encoding="utf-8"?>
<!-- Generator: Adobe Illustrator 17.0.0, SVG Export Plug-In . SVG Version: 6.00 Build 0)  -->
<!DOCTYPE svg PUBLIC "-//W3C//DTD SVG 1.1//EN" "http://www.w3.org/Graphics/SVG/1.1/DTD/svg11.dtd">
<svg version="1.1" id="Calque_1" xmlns="http://www.w3.org/2000/svg" xmlns:xlink="http://www.w3.org/1999/xlink" x="0px" y="0px"
	 width="300px" height="300px" viewBox="0 0 300 300" enable-background="new 0 0 300 300" xml:space="preserve">
<g>
	<path fill="#999999" d="M150,2.167C68.484,2.167,2.167,68.484,2.167,150S68.484,297.833,150,297.833
		s147.833-66.317,147.833-147.832C297.833,68.485,231.516,2.167,150,2.167z M150,280.474c-71.944,0-130.475-58.53-130.475-130.474
		C19.525,78.056,78.056,19.525,150,19.525c71.943,0,130.474,58.531,130.474,130.475C280.474,221.943,221.943,280.474,150,280.474z"
		/>
	<path fill="#999999" d="M202.866,56.634c-27.019,0-49,21.981-49,49c0,10.407,3.271,20.059,8.825,28.003l-41.833,41.649
		l-18.58-18.474c-3.328-3.31-8.71-3.295-12.021,0.034s-3.295,8.711,0.034,12.021l18.519,18.414l-5.8,5.774l-10.978-10.916
		c-3.328-3.31-8.71-3.295-12.021,0.034c-3.31,3.329-3.294,8.711,0.035,12.021l10.917,10.855l-5.464,5.44l-23.255-23.121
		c-3.329-3.311-8.71-3.295-12.021,0.034c-3.31,3.329-3.294,8.711,0.035,12.021l29.252,29.084c1.658,1.648,3.825,2.473,5.993,2.473
		c2.169,0,4.339-0.825,5.997-2.477l35.386-35.23c0.001-0.001,0.002-0.002,0.003-0.003c0.001-0.001,0.001-0.002,0.002-0.002
		l47.795-47.584c7.977,5.63,17.695,8.95,28.179,8.95c27.019,0,49-21.981,49-49S229.885,56.634,202.866,56.634z M202.866,137.634
		c-17.645,0-32-14.355-32-32s14.355-32,32-32s32,14.355,32,32S220.511,137.634,202.866,137.634z"/>
</g>
</svg>
