<?xml version="1.0" encoding="utf-8"?>
<!-- Generator: Adobe Illustrator 17.0.0, SVG Export Plug-In . SVG Version: 6.00 Build 0)  -->
<!DOCTYPE svg PUBLIC "-//W3C//DTD SVG 1.1//EN" "http://www.w3.org/Graphics/SVG/1.1/DTD/svg11.dtd">
<svg version="1.1" id="Calque_1" xmlns="http://www.w3.org/2000/svg" xmlns:xlink="http://www.w3.org/1999/xlink" x="0px" y="0px"
	 width="300px" height="300px" viewBox="0 0 300 300" enable-background="new 0 0 300 300" xml:space="preserve">
<g>
	<path fill="#999999" d="M150,0C67.157,0,0,67.157,0,150c0,26.577,6.921,51.534,19.045,73.182c2.889,5.158,6.073,10.127,9.53,14.886
		C55.84,275.594,100.067,300,150,300c49.933,0,94.16-24.405,121.424-61.931c3.458-4.759,6.641-9.728,9.53-14.886
		C293.079,201.533,300,176.577,300,150C300,67.157,232.843,0,150,0z M245.459,245.459C219.961,270.957,186.06,285,150,285
		s-69.961-14.042-95.459-39.541c-5.758-5.758-10.925-11.947-15.485-18.49c29.94-28.903,69.219-44.793,110.944-44.793
		c41.725,0,81.004,15.889,110.944,44.792C256.385,233.511,251.217,239.701,245.459,245.459z M102.5,117.676
		c0-26.192,21.308-47.5,47.5-47.5s47.5,21.308,47.5,47.5s-21.308,47.5-47.5,47.5S102.5,143.868,102.5,117.676z M269.939,212.086
		c-22.505-20.788-50.421-35.799-81.397-42.689c15.756-11.76,25.958-30.549,25.958-51.721c0-35.622-28.878-64.5-64.5-64.5
		s-64.5,28.878-64.5,64.5c0,21.172,10.202,39.961,25.958,51.721c-30.976,6.89-58.892,21.902-81.397,42.689
		C20.221,193.132,15,171.969,15,150c0-36.06,14.042-69.961,39.541-95.459C80.039,29.042,113.94,15,150,15
		s69.961,14.042,95.459,39.541C270.957,80.039,285,113.94,285,150C285,171.968,279.779,193.132,269.939,212.086z"/>
</g>
</svg>
