<?xml version="1.0" encoding="UTF-8" standalone="no"?>
<svg width="18px" height="22px" viewBox="0 0 18 22" version="1.1" xmlns="http://www.w3.org/2000/svg" xmlns:xlink="http://www.w3.org/1999/xlink">
    <!-- Generator: Sketch 40.1 (33804) - http://www.bohemiancoding.com/sketch -->
    <title>Deconnexion</title>
    <desc>Created with Sketch.</desc>
    <defs></defs>
    <g id="Page-1" stroke="none" stroke-width="1" fill="none" fill-rule="evenodd">
        <g id="Dashboard" transform="translate(-973.000000, -25.000000)" fill="#00A6FF">
            <g id="HEADER" transform="translate(273.000000, 0.000000)">
                <g id="Deconnexion" transform="translate(700.000000, 25.000000)">
                    <path d="M15.2103981,6.82640984 C14.5118323,6.12049069 13.7105197,5.5435104 12.8287967,5.11155107 C12.2742996,4.83928409 11.6056085,5.07346191 11.3364569,5.63464225 C11.067026,6.1952583 11.2990437,6.87042399 11.8540992,7.14240883 C12.511343,7.46433279 13.1088373,7.89516355 13.6309469,8.42248686 C16.1890045,11.0077535 16.1890045,15.2139257 13.6309469,17.7991924 C12.3918441,19.0513384 10.7439882,19.7408933 8.9914311,19.7408933 C7.23887405,19.7408933 5.59101811,19.0516205 4.35191532,17.7991924 C1.79385769,15.2139257 1.79385769,11.0077535 4.35191532,8.42248686 C4.87402488,7.89488141 5.47179844,7.46433279 6.12820463,7.14297311 C6.68298093,6.87098827 6.9149986,6.19610473 6.64584693,5.63520653 C6.37641607,5.07430833 5.70940017,4.84041266 5.15350705,5.11183321 C4.27206327,5.5435104 3.47130915,6.12049069 2.77246411,6.82640984 C-0.656706787,10.2916773 -0.656706787,15.930002 2.77246411,19.3949873 C4.48704956,21.1279032 6.73910073,21.9940789 8.9911519,21.9940789 C11.2432031,21.9940789 13.4955334,21.1279032 15.2098397,19.3949873 C18.6398482,15.930002 18.6398482,10.2916773 15.2103981,6.82640984 L15.2103981,6.82640984 Z" id="Shape"></path>
                    <path d="M8.9917103,11.276917 C9.60846967,11.276917 10.1085222,10.7716007 10.1085222,10.1483492 L10.1085222,1.68409066 C10.1085222,1.06083909 9.60846967,0.555522859 8.9917103,0.555522859 C8.37495094,0.555522859 7.87489842,1.06083909 7.87489842,1.68409066 L7.87489842,10.1483492 C7.87489842,10.7716007 8.37495094,11.276917 8.9917103,11.276917 L8.9917103,11.276917 Z" id="Shape"></path>
                </g>
            </g>
        </g>
    </g>
</svg>