<?xml version="1.0" encoding="utf-8"?>
<!-- Generator: Adobe Illustrator 21.0.0, SVG Export Plug-In . SVG Version: 6.00 Build 0)  -->
<svg version="1.1" id="Calque_1" xmlns="http://www.w3.org/2000/svg" xmlns:xlink="http://www.w3.org/1999/xlink" x="0px" y="0px"
	 viewBox="0 0 18 22" style="enable-background:new 0 0 18 22;" xml:space="preserve">
<style type="text/css">
	.st0{fill:#00A6FF;}
</style>
<title>Deconnexion</title>
<desc>Created with Sketch.</desc>
<path id="Shape_2_" class="st0" d="M16.1,20.7c0.5-0.5,0.5-1.3,0-1.9L3.5,5.8C3,5.3,2.2,5.3,1.6,5.8s-0.5,1.3,0,1.9l12.7,13
	C14.8,21.1,15.6,21.2,16.1,20.7L16.1,20.7z"/>
<path id="Shape_3_" class="st0" d="M1.6,20.7c0.5,0.5,1.3,0.5,1.9-0.1l12.7-13c0.5-0.5,0.5-1.4,0-1.9c-0.5-0.5-1.3-0.5-1.9,0.1
	l-12.7,13C1.1,19.3,1.1,20.2,1.6,20.7L1.6,20.7z"/>
</svg>
