<?xml version="1.0" encoding="utf-8"?>
<!-- Generator: Adobe Illustrator 21.0.2, SVG Export Plug-In . SVG Version: 6.00 Build 0)  -->
<svg version="1.1" id="Calque_1" xmlns="http://www.w3.org/2000/svg" xmlns:xlink="http://www.w3.org/1999/xlink" x="0px" y="0px"
	 viewBox="0 0 359.9 85.9" style="enable-background:new 0 0 359.9 85.9;" xml:space="preserve">
<style type="text/css">
	.st0{fill:#FFFFFF;}
</style>
<g>
	<g>
		<polygon class="st0" points="65.1,59.6 20.1,78.4 3.1,78.4 3.1,59.9 65.1,34 		"/>
		<polygon class="st0" points="3.1,26.3 48.1,7.5 65.1,7.5 65.1,26 3.1,51.9 		"/>
	</g>
</g>
<g>
	<g>
		<g>
			<rect x="212.8" y="9.5" class="st0" width="7.9" height="47.7"/>
		</g>
		<g>
			<g>
				<path class="st0" d="M317.1,57.3L334,9.7h7.9l16.9,47.7h-8.9l-2.9-7.9h-18.1l-2.9,7.9H317.1z M337.9,24l-6.2,17.4h12.5L337.9,24
					z"/>
			</g>
		</g>
		<g>
			<path class="st0" d="M250.5,36.3h16.4c-0.7,2.4-1.8,4.6-3.2,6.5c-0.6,0.8-1.4,1.6-2.2,2.4c-0.8,0.8-1.8,1.5-2.9,2.1
				c-1.1,0.6-2.3,1.1-3.6,1.5c-1.4,0.4-2.9,0.6-4.5,0.6c-2.3,0-4.5-0.4-6.6-1.3c-2-0.9-3.8-2.1-5.4-3.6c-1.5-1.5-2.7-3.3-3.6-5.4
				c-0.9-2.1-1.3-4.3-1.3-6.6c0-2.3,0.4-4.5,1.3-6.6c0.9-2.1,2.1-3.9,3.6-5.4c1.5-1.5,3.3-2.7,5.4-3.6c2.1-0.9,4.2-1.3,6.6-1.3
				c2.6,0,4.9,0.5,6.7,1.4c1.9,1,3.4,2,4.7,3.1c0.7,0.6,1.3,1.3,1.8,2h9.2c-1-2.2-2.3-4.1-3.9-6c-0.9-1-1.9-2-3.1-3.1
				c-1.2-1-2.6-1.9-4.1-2.7c-1.6-0.8-3.3-1.5-5.1-1.9c-1.9-0.5-4-0.7-6.2-0.7c-3.4,0-6.6,0.6-9.7,2c-3,1.3-5.6,3.1-7.9,5.3
				c-2.2,2.3-4,4.9-5.3,7.9c-1.3,3-2,6.2-2,9.7c0,3.4,0.6,6.6,2,9.7c1.3,3,3.1,5.7,5.3,7.9c2.2,2.2,4.9,4,7.9,5.3c3,1.3,6.2,2,9.7,2
				c2.4,0,4.5-0.3,6.4-0.8c1.9-0.6,3.5-1.2,4.9-1.9c1.6-0.8,3-1.7,4.3-2.8v4.5h7.9V28.4h-23.5V36.3z"/>
		</g>
		<g>
			<path class="st0" d="M183.9,36.3h16.4c-0.7,2.4-1.8,4.6-3.2,6.5c-0.6,0.8-1.4,1.6-2.2,2.4c-0.8,0.8-1.8,1.5-2.9,2.1
				c-1.1,0.6-2.3,1.1-3.6,1.5c-1.4,0.4-2.9,0.6-4.5,0.6c-2.3,0-4.5-0.4-6.6-1.3c-2-0.9-3.8-2.1-5.4-3.6c-1.5-1.5-2.7-3.3-3.6-5.4
				c-0.9-2.1-1.3-4.3-1.3-6.6c0-2.3,0.4-4.5,1.3-6.6c0.9-2.1,2.1-3.9,3.6-5.4c1.5-1.5,3.3-2.7,5.4-3.6c2.1-0.9,4.2-1.3,6.6-1.3
				c2.6,0,4.9,0.5,6.7,1.4c1.9,1,3.4,2,4.7,3.1c0.7,0.6,1.3,1.3,1.8,2h9.2c-1-2.2-2.3-4.1-3.9-6c-0.9-1-1.9-2-3.1-3.1
				c-1.2-1-2.6-1.9-4.1-2.7c-1.6-0.8-3.3-1.5-5.1-1.9c-1.9-0.5-4-0.7-6.2-0.7c-3.4,0-6.6,0.6-9.7,2c-3,1.3-5.6,3.1-7.9,5.3
				c-2.2,2.3-4,4.9-5.3,7.9c-1.3,3-2,6.2-2,9.7c0,3.4,0.6,6.6,2,9.7c1.3,3,3.1,5.7,5.3,7.9c2.2,2.2,4.9,4,7.9,5.3c3,1.3,6.2,2,9.7,2
				c2.4,0,4.5-0.3,6.4-0.8c1.9-0.6,3.5-1.2,4.9-1.9c1.6-0.8,3-1.7,4.3-2.8v4.5h7.9V28.4h-23.5V36.3z"/>
		</g>
		<g>
			<polygon class="st0" points="77.9,9.5 85.8,9.5 85.8,49.2 107.9,49.2 107.9,57.2 77.9,57.2 			"/>
		</g>
		<g>
			<g>
				<path class="st0" d="M106,32.3c0-3.4,0.7-6.6,2-9.7c1.3-3,3.1-5.6,5.3-7.9c2.2-2.2,4.9-4,7.9-5.3c3-1.3,6.2-2,9.7-2
					c3.4,0,6.6,0.6,9.7,2c3,1.3,5.7,3.1,7.9,5.3c2.3,2.3,4,4.9,5.3,7.9c1.3,3,2,6.2,2,9.7c0,3.4-0.7,6.6-2,9.7
					c-1.3,3-3.1,5.7-5.3,7.9c-2.2,2.2-4.9,4-7.9,5.3c-3,1.3-6.2,2-9.7,2c-3.4,0-6.6-0.6-9.7-2c-3-1.3-5.6-3.1-7.9-5.3
					c-2.2-2.2-4-4.9-5.3-7.9C106.7,39,106,35.8,106,32.3 M114,32.3c0,2.3,0.4,4.5,1.3,6.6c0.9,2.1,2.1,3.8,3.6,5.4
					c1.5,1.5,3.3,2.7,5.4,3.6c2.1,0.9,4.3,1.3,6.6,1.3c2.3,0,4.5-0.4,6.6-1.3c2.1-0.9,3.9-2.1,5.4-3.6c1.5-1.5,2.7-3.3,3.6-5.4
					c0.9-2.1,1.3-4.3,1.3-6.6c0-2.3-0.4-4.5-1.3-6.6c-0.9-2.1-2.1-3.9-3.6-5.4c-1.5-1.5-3.3-2.7-5.4-3.6c-2.1-0.9-4.2-1.3-6.6-1.3
					c-2.3,0-4.5,0.4-6.6,1.3c-2.1,0.9-3.9,2.1-5.4,3.6c-1.5,1.5-2.7,3.3-3.6,5.4C114.4,27.8,114,30,114,32.3"/>
			</g>
		</g>
		<path class="st0" d="M317.1,41.8c0,9.5-7.5,15.5-18.7,15.5s-18.7-6-18.7-15.5V9.7h8.7v29.9c0,5.7,2.4,9.3,10,9.3s10-3.6,10-9.3
			V9.7h8.7V41.8z"/>
	</g>
</g>
</svg>
