<?xml version="1.0" encoding="utf-8"?>
<!-- Generator: Adobe Illustrator 21.0.0, SVG Export Plug-In . SVG Version: 6.00 Build 0)  -->
<svg version="1.1" id="Calque_1" xmlns="http://www.w3.org/2000/svg" xmlns:xlink="http://www.w3.org/1999/xlink" x="0px" y="0px"
	 viewBox="0 0 359.9 85.9" style="enable-background:new 0 0 359.9 85.9;" xml:space="preserve">
<style type="text/css">
	.st0{fill:#FFFFFF;}
</style>
<g>
	<g>
		<g>
			<g>
				<polygon class="st0" points="64.1,59.6 19.1,78.4 2.1,78.4 2.1,59.9 64.1,34 				"/>
				<polygon class="st0" points="2.1,26.3 47.1,7.5 64.1,7.5 64.1,26 2.1,51.9 				"/>
			</g>
		</g>
		<g>
			<path class="st0" d="M110.8,51.9c-3.6,3.6-9.1,5.1-14.9,5.1c-5,0-10.3-1.3-14.1-4.9c-2.8-2.5-4.9-6.5-4.9-11h8.8
				c0,2.3,1.1,4.4,2.5,5.8c2,2,5.2,2.5,7.9,2.5c3.3,0,6.4-0.7,8.2-2.5c1.1-1.1,1.9-2.3,1.9-4.5c0-3.5-2.7-5.1-5.6-5.6
				c-3.2-0.6-7.3-0.7-10.5-1.3c-6.5-1.1-12-5.3-12-13.2c0-3.7,1.7-6.9,4.1-9.3c3.1-3.1,8.3-5,13.9-5c5.1,0,10,1.6,13.2,4.6
				c2.8,2.7,4.7,6.1,4.8,10.1h-8.8c-0.1-1.7-0.9-3.5-2.1-4.7c-1.5-1.6-4.7-2.5-7.2-2.5c-2.7,0-5.7,0.6-7.7,2.6c-1,1.1-1.6,2.3-1.6,4
				c0,3.1,2,4.7,4.8,5.1c3,0.5,7.2,0.8,10.3,1.2c7.1,1,13,5.6,13,13.7C114.8,46.5,113.2,49.6,110.8,51.9z"/>
			<path class="st0" d="M165,32.4c0,13.4-8.5,24.9-22.7,24.9c-14.2,0-22.7-11.5-22.7-24.9c0-13.4,8.5-24.9,22.7-24.9
				C156.5,7.5,165,19,165,32.4z M128.9,32.4c0,8.3,3.9,16.7,13.4,16.7s13.4-8.4,13.4-16.7c0-8.3-3.9-16.6-13.4-16.6
				C132.8,15.8,128.9,24.2,128.9,32.4z"/>
			<path class="st0" d="M171.9,8.7h31.2V17h-22.2v11.3h19.4v7.9h-19.4v20h-8.9L171.9,8.7L171.9,8.7z"/>
			<path class="st0" d="M207.7,8.7h19.8c10.1,0,16,6,16,14.3c0,10.7-7.1,13.1-9.4,14l10.6,19.1h-10.3l-9.2-17.5h-8.5v17.5h-8.9
				L207.7,8.7L207.7,8.7z M216.6,30.8h9.7c4.5,0,7.8-2.7,7.8-7.1c0-4.3-2.9-7.1-9.1-7.1h-8.4L216.6,30.8L216.6,30.8z"/>
			<path class="st0" d="M250.1,8.7h8.9v47.4h-8.9L250.1,8.7L250.1,8.7z"/>
			<path class="st0" d="M301,24.8c-1-3.8-4-9.1-11.9-9.1c-9.5,0-13.4,8.4-13.4,16.7c0,8.3,3.9,16.7,13.4,16.7
				c6.3,0,12.1-4.5,12.1-11h-11.7v-7.9h19.8v25.9h-7.7v-4.1c-3.1,3.5-8.3,5.3-12.5,5.3c-15.2,0-22.7-11.5-22.7-24.9
				c0-13.4,8.5-24.9,22.7-24.9c9.7,0,16.6,4.9,20.2,13.9L301,24.8z"/>
			<path class="st0" d="M355.8,41.5c0,9.7-7.7,15.8-19.1,15.8c-11.5,0-19.1-6.1-19.1-15.8V8.7h8.9v30.5c0,5.8,2.5,9.5,10.2,9.5
				s10.2-3.7,10.2-9.5V8.7h8.9V41.5z"/>
		</g>
	</g>
</g>
</svg>
