<?xml version="1.0" encoding="utf-8"?>
<!-- Generator: Adobe Illustrator 17.0.0, SVG Export Plug-In . SVG Version: 6.00 Build 0)  -->
<!DOCTYPE svg PUBLIC "-//W3C//DTD SVG 1.1//EN" "http://www.w3.org/Graphics/SVG/1.1/DTD/svg11.dtd">
<svg version="1.1" id="Calque_1" xmlns="http://www.w3.org/2000/svg" xmlns:xlink="http://www.w3.org/1999/xlink" x="0px" y="0px"
	 width="359.898px" height="85.895px" viewBox="0 0 359.898 85.895" enable-background="new 0 0 359.898 85.895"
	 xml:space="preserve">
<g>
	<g>
		<polygon fill="#FFFFFF" points="68.681,58.44 23.685,77.195 6.727,77.195 6.727,58.735 68.681,32.8 		"/>
		<polygon fill="#FFFFFF" points="6.726,25.064 51.723,6.304 68.681,6.304 68.681,24.767 6.726,50.7 		"/>
	</g>
	<g>
		<path fill="#FFFFFF" d="M109.959,20.279c0-0.751-0.134-1.416-0.405-2.006c-0.266-0.589-0.614-1.108-1.04-1.555
			c-0.429-0.447-0.923-0.822-1.475-1.127c-0.556-0.304-1.117-0.562-1.688-0.775c-1.356-0.46-2.876-0.727-4.55-0.803
			c-1.717,0.076-3.253,0.343-4.613,0.803c-0.57,0.213-1.133,0.471-1.683,0.775c-0.551,0.305-1.047,0.679-1.473,1.127
			c-0.429,0.448-0.771,0.966-1.019,1.555c-0.246,0.59-0.371,1.255-0.371,2.006c0,0.789,0.125,1.473,0.371,2.064
			c0.248,0.589,0.59,1.094,1.019,1.521c0.426,0.433,0.922,0.8,1.473,1.104c0.55,0.303,1.113,0.56,1.683,0.773
			c1.36,0.463,2.896,0.733,4.613,0.806c2.21,0,4.166,0.204,5.862,0.617c1.698,0.409,3.167,0.942,4.418,1.607
			c1.252,0.656,2.3,1.408,3.157,2.245c0.861,0.841,1.573,1.693,2.145,2.548c1.321,2.037,2.068,4.355,2.249,6.961
			c-0.18,2.642-0.927,4.982-2.249,7.02c-0.573,0.854-1.285,1.701-2.145,2.538c-0.857,0.841-1.906,1.587-3.157,2.253
			c-1.251,0.656-2.719,1.187-4.418,1.577c-1.696,0.391-3.652,0.59-5.862,0.59c-2.254,0-4.215-0.199-5.898-0.59
			c-1.673-0.39-3.136-0.921-4.392-1.577c-1.247-0.666-2.301-1.412-3.159-2.253c-0.856-0.837-1.568-1.684-2.138-2.538
			c-1.322-2.038-2.074-4.378-2.256-7.02h7.713c0,0.816,0.143,1.54,0.43,2.168c0.284,0.628,0.673,1.161,1.153,1.607
			c0.48,0.446,1.018,0.823,1.602,1.122c0.59,0.305,1.209,0.549,1.855,0.724c1.459,0.429,3.157,0.645,5.088,0.645
			c1.891,0,3.566-0.217,5.03-0.645c0.646-0.175,1.265-0.419,1.873-0.724c0.609-0.299,1.15-0.676,1.636-1.122
			c0.485-0.446,0.865-0.979,1.151-1.607c0.285-0.628,0.427-1.352,0.427-2.168c0-0.823-0.143-1.536-0.427-2.14
			c-0.286-0.609-0.667-1.146-1.151-1.608c-0.486-0.466-1.027-0.849-1.636-1.155c-0.608-0.3-1.226-0.542-1.873-0.723
			c-1.464-0.429-3.139-0.642-5.03-0.642c-2.111,0-3.967-0.195-5.573-0.59c-1.608-0.389-3.011-0.918-4.203-1.577
			c-1.198-0.662-2.197-1.413-2.999-2.254c-0.806-0.836-1.475-1.683-2.012-2.54c-1.213-2.033-1.911-4.373-2.083-7.017
			c0.172-2.605,0.87-4.926,2.083-6.961c0.537-0.856,1.206-1.707,2.012-2.55c0.802-0.836,1.801-1.586,2.999-2.243
			c1.192-0.666,2.595-1.199,4.203-1.607c1.607-0.41,3.462-0.618,5.573-0.618c2.101,0,3.961,0.208,5.566,0.618
			c1.608,0.408,3.01,0.94,4.203,1.607c1.193,0.657,2.198,1.406,3.001,2.243c0.803,0.843,1.473,1.693,2.008,2.55
			c1.216,2.035,1.911,4.357,2.09,6.961H109.959z"/>
		<path fill="#FFFFFF" d="M121.957,30.402c0-3.324,0.631-6.442,1.901-9.373c1.265-2.928,2.991-5.482,5.168-7.659
			c2.178-2.177,4.727-3.904,7.656-5.168c2.93-1.266,6.058-1.902,9.376-1.902c3.32,0,6.443,0.636,9.372,1.902
			c2.923,1.264,5.482,2.991,7.66,5.168c2.177,2.177,3.898,4.731,5.164,7.659c1.268,2.93,1.902,6.049,1.902,9.373
			s-0.633,6.444-1.902,9.371c-1.266,2.928-2.986,5.482-5.164,7.661c-2.178,2.177-4.737,3.904-7.66,5.168
			c-2.929,1.265-6.052,1.902-9.372,1.902c-3.318,0-6.446-0.637-9.376-1.902c-2.929-1.264-5.477-2.991-7.656-5.168
			c-2.177-2.178-3.903-4.733-5.168-7.661C122.588,36.846,121.957,33.726,121.957,30.402z M129.669,30.402
			c0,2.25,0.427,4.374,1.283,6.376c0.861,1.997,2.031,3.738,3.509,5.221c1.478,1.484,3.218,2.65,5.226,3.509
			c1.996,0.856,4.117,1.283,6.371,1.283c2.25,0,4.374-0.427,6.372-1.283c1.997-0.859,3.737-2.025,5.221-3.509
			c1.484-1.483,2.652-3.224,3.509-5.221c0.855-2.002,1.283-4.126,1.283-6.376c0-2.249-0.429-4.374-1.283-6.377
			c-0.856-1.997-2.025-3.737-3.509-5.22c-1.484-1.479-3.224-2.654-5.221-3.51c-1.998-0.855-4.122-1.284-6.372-1.284
			c-2.255,0-4.375,0.429-6.371,1.284c-2.007,0.856-3.748,2.031-5.226,3.51c-1.478,1.483-2.648,3.223-3.509,5.22
			C130.097,26.028,129.669,28.153,129.669,30.402z"/>
		<path fill="#FFFFFF" d="M174.391,7.265h34.492v7.713h-26.781v11.569h19.284v7.712h-19.284V53.54h-7.711V7.265z"/>
		<path fill="#FFFFFF" d="M213.115,7.265h15.425c2.892,0.143,5.461,0.782,7.714,1.926c0.965,0.503,1.904,1.117,2.838,1.85
			c0.929,0.732,1.75,1.64,2.463,2.734c0.712,1.083,1.295,2.362,1.738,3.828c0.451,1.463,0.672,3.161,0.672,5.086
			c0.07,1.894-0.178,3.715-0.751,5.464c-0.252,0.751-0.582,1.515-0.993,2.301c-0.409,0.788-0.934,1.554-1.577,2.301
			c-0.639,0.75-1.416,1.464-2.332,2.144c-0.909,0.68-1.969,1.288-3.188,1.821L247.82,53.54h-9.643l-11.566-15.425h-5.783V53.54
			h-7.713V7.265z M220.828,30.402h7.712c1.429-0.071,2.715-0.395,3.856-0.966c0.961-0.464,1.848-1.222,2.654-2.272
			c0.799-1.055,1.205-2.548,1.205-4.475c0-0.965-0.114-1.811-0.326-2.544c-0.213-0.732-0.511-1.368-0.879-1.901
			c-0.381-0.533-0.799-0.99-1.264-1.366c-0.461-0.376-0.922-0.689-1.39-0.937c-1.141-0.57-2.427-0.894-3.856-0.964h-7.712V30.402z"
			/>
		<path fill="#FFFFFF" d="M251.09,7.265h7.71V53.54h-7.71V7.265z"/>
		<path fill="#FFFFFF" d="M264.427,7.265h15.426c4.318,0.213,8.172,1.175,11.56,2.89c1.428,0.718,2.845,1.631,4.231,2.764
			c1.396,1.122,2.636,2.496,3.724,4.118c1.089,1.626,1.965,3.537,2.626,5.732c0.662,2.199,0.994,4.737,0.994,7.633
			c0,2.892-0.333,5.434-0.994,7.631c-0.661,2.197-1.536,4.108-2.626,5.735c-1.088,1.621-2.328,2.995-3.724,4.118
			c-1.387,1.127-2.804,2.045-4.231,2.758c-3.388,1.714-7.242,2.682-11.56,2.896h-15.426V7.265z M272.138,45.827h7.715
			c2.89-0.143,5.459-0.785,7.709-1.927c0.964-0.466,1.907-1.074,2.835-1.826c0.929-0.746,1.747-1.664,2.459-2.758
			c0.714-1.083,1.295-2.363,1.745-3.827c0.444-1.464,0.675-3.162,0.675-5.087s-0.231-3.623-0.675-5.087
			c-0.45-1.464-1.031-2.744-1.745-3.828c-0.712-1.094-1.531-2.002-2.459-2.733c-0.929-0.733-1.872-1.346-2.835-1.85
			c-2.251-1.141-4.819-1.783-7.709-1.924h-7.715V45.827z"/>
		<path fill="#FFFFFF" d="M307.379,7.265h7.715V53.54h-7.715V7.265z"/>
		<path fill="#FFFFFF" d="M344.495,20.279c0-0.751-0.136-1.416-0.401-2.006c-0.266-0.589-0.618-1.108-1.047-1.555
			c-0.427-0.447-0.923-0.822-1.473-1.127c-0.553-0.304-1.113-0.562-1.685-0.775c-1.359-0.46-2.876-0.727-4.553-0.803
			c-1.712,0.076-3.253,0.343-4.608,0.803c-0.572,0.213-1.137,0.471-1.688,0.775c-0.552,0.305-1.048,0.679-1.473,1.127
			c-0.428,0.448-0.767,0.966-1.019,1.555c-0.246,0.59-0.371,1.255-0.371,2.006c0,0.789,0.125,1.473,0.371,2.064
			c0.252,0.589,0.592,1.094,1.019,1.521c0.425,0.433,0.922,0.8,1.473,1.104c0.551,0.303,1.116,0.56,1.688,0.773
			c1.355,0.463,2.896,0.733,4.608,0.806c2.216,0,4.167,0.204,5.867,0.617c1.691,0.409,3.167,0.942,4.413,1.607
			c1.25,0.656,2.306,1.408,3.162,2.245c0.856,0.841,1.57,1.693,2.145,2.548c1.317,2.037,2.067,4.355,2.249,6.961
			c-0.181,2.642-0.932,4.982-2.249,7.02c-0.575,0.854-1.289,1.701-2.145,2.538c-0.856,0.841-1.913,1.587-3.162,2.253
			c-1.246,0.656-2.722,1.187-4.413,1.577c-1.701,0.391-3.652,0.59-5.867,0.59c-2.249,0-4.215-0.199-5.892-0.59
			c-1.677-0.39-3.142-0.921-4.394-1.577c-1.251-0.666-2.299-1.412-3.16-2.253c-0.856-0.837-1.568-1.684-2.141-2.538
			c-1.321-2.038-2.072-4.378-2.249-7.02h7.708c0,0.816,0.147,1.54,0.431,2.168c0.285,0.628,0.67,1.161,1.157,1.607
			c0.474,0.446,1.016,0.823,1.601,1.122c0.588,0.305,1.203,0.549,1.85,0.724c1.463,0.429,3.156,0.645,5.087,0.645
			c1.894,0,3.565-0.217,5.031-0.645c0.648-0.175,1.27-0.419,1.876-0.724c0.604-0.299,1.151-0.676,1.634-1.122
			c0.483-0.446,0.864-0.979,1.149-1.607c0.287-0.628,0.433-1.352,0.433-2.168c0-0.823-0.146-1.536-0.433-2.14
			c-0.285-0.609-0.667-1.146-1.149-1.608c-0.482-0.466-1.029-0.849-1.634-1.155c-0.607-0.3-1.228-0.542-1.876-0.723
			c-1.466-0.429-3.137-0.642-5.031-0.642c-2.113,0-3.965-0.195-5.572-0.59c-1.609-0.389-3.007-0.918-4.205-1.577
			c-1.196-0.662-2.196-1.413-2.992-2.254c-0.81-0.836-1.476-1.683-2.012-2.54c-1.214-2.033-1.914-4.373-2.089-7.017
			c0.176-2.605,0.875-4.926,2.089-6.961c0.536-0.856,1.202-1.707,2.012-2.55c0.796-0.836,1.796-1.586,2.992-2.243
			c1.197-0.666,2.595-1.199,4.205-1.607c1.607-0.41,3.46-0.618,5.572-0.618c2.108,0,3.963,0.208,5.572,0.618
			c1.609,0.408,3.007,0.94,4.202,1.607c1.195,0.657,2.191,1.406,2.996,2.243c0.807,0.843,1.475,1.693,2.013,2.55
			c1.213,2.035,1.907,4.357,2.086,6.961H344.495z"/>
	</g>
	<g>
		<path fill="#FFFFFF" d="M84.534,75.87h5.031v1.325H82.96V65.568h1.574V75.87z"/>
		<path fill="#FFFFFF" d="M101.451,71.385c0,0.871-0.138,1.669-0.414,2.396c-0.276,0.729-0.665,1.355-1.168,1.878
			c-0.504,0.525-1.108,0.933-1.814,1.222c-0.706,0.289-1.486,0.435-2.34,0.435c-0.855,0-1.635-0.145-2.338-0.435
			c-0.703-0.288-1.306-0.697-1.808-1.222c-0.502-0.523-0.892-1.15-1.168-1.878c-0.276-0.727-0.414-1.525-0.414-2.396
			c0-0.87,0.138-1.67,0.414-2.398c0.275-0.727,0.665-1.354,1.168-1.881c0.502-0.527,1.106-0.937,1.808-1.231
			c0.703-0.29,1.483-0.437,2.338-0.437c0.854,0,1.634,0.147,2.34,0.437c0.706,0.294,1.311,0.704,1.814,1.231
			c0.502,0.527,0.891,1.154,1.168,1.881C101.312,69.715,101.451,70.514,101.451,71.385z M99.836,71.385
			c0-0.715-0.097-1.356-0.293-1.922c-0.194-0.57-0.471-1.049-0.828-1.443c-0.355-0.391-0.788-0.693-1.298-0.903
			c-0.509-0.212-1.076-0.316-1.703-0.316c-0.623,0-1.187,0.104-1.696,0.316c-0.509,0.21-0.944,0.512-1.302,0.903
			c-0.36,0.394-0.638,0.873-0.833,1.443c-0.194,0.566-0.29,1.206-0.29,1.922c0,0.715,0.096,1.354,0.29,1.92
			c0.194,0.563,0.473,1.044,0.833,1.436c0.359,0.392,0.793,0.692,1.302,0.899c0.508,0.209,1.073,0.312,1.696,0.312
			c0.627,0,1.193-0.103,1.703-0.312c0.509-0.207,0.943-0.507,1.298-0.899c0.357-0.392,0.634-0.872,0.828-1.436
			C99.739,72.739,99.836,72.099,99.836,71.385z"/>
		<path fill="#FFFFFF" d="M108.783,76.048c0.314,0,0.602-0.014,0.865-0.043c0.262-0.029,0.508-0.076,0.741-0.135
			c0.232-0.059,0.452-0.131,0.657-0.214c0.206-0.084,0.411-0.179,0.616-0.287v-2.566h-1.8c-0.103,0-0.185-0.028-0.247-0.088
			c-0.063-0.061-0.094-0.132-0.094-0.22v-0.892h3.571v4.462c-0.293,0.211-0.597,0.396-0.913,0.553
			c-0.316,0.157-0.655,0.288-1.014,0.395c-0.361,0.104-0.746,0.183-1.157,0.234c-0.41,0.05-0.857,0.076-1.337,0.076
			c-0.843,0-1.616-0.144-2.32-0.432c-0.704-0.29-1.311-0.696-1.819-1.218c-0.507-0.52-0.904-1.149-1.189-1.877
			c-0.284-0.732-0.425-1.534-0.425-2.41c0-0.888,0.139-1.697,0.418-2.425c0.279-0.732,0.676-1.356,1.191-1.88
			c0.518-0.521,1.143-0.926,1.876-1.211c0.733-0.288,1.554-0.431,2.462-0.431c0.46,0,0.887,0.035,1.281,0.101
			c0.395,0.068,0.761,0.166,1.101,0.294c0.337,0.125,0.649,0.279,0.936,0.461c0.287,0.18,0.554,0.385,0.803,0.611l-0.446,0.716
			c-0.093,0.145-0.211,0.218-0.357,0.218c-0.087,0-0.181-0.029-0.283-0.088c-0.135-0.077-0.287-0.167-0.455-0.277
			c-0.167-0.108-0.372-0.212-0.612-0.313c-0.241-0.101-0.525-0.186-0.851-0.257c-0.328-0.07-0.716-0.104-1.165-0.104
			c-0.655,0-1.246,0.105-1.777,0.32c-0.531,0.214-0.98,0.521-1.355,0.917c-0.373,0.397-0.659,0.878-0.86,1.444
			c-0.2,0.566-0.3,1.198-0.3,1.903c0,0.736,0.104,1.391,0.312,1.969c0.208,0.574,0.502,1.062,0.88,1.463
			c0.38,0.401,0.828,0.706,1.347,0.917C107.584,75.943,108.157,76.048,108.783,76.048z"/>
		<path fill="#FFFFFF" d="M117.377,77.195h-1.575V65.568h1.575V77.195z"/>
		<path fill="#FFFFFF" d="M126.447,67.385c-0.049,0.081-0.102,0.141-0.156,0.183c-0.054,0.041-0.124,0.06-0.21,0.06
			c-0.093,0-0.2-0.044-0.322-0.137c-0.122-0.094-0.276-0.195-0.463-0.305c-0.186-0.111-0.411-0.213-0.672-0.306
			c-0.262-0.091-0.579-0.138-0.954-0.138c-0.35,0-0.661,0.049-0.931,0.143c-0.271,0.096-0.496,0.224-0.678,0.387
			c-0.182,0.162-0.319,0.351-0.41,0.572c-0.093,0.219-0.138,0.454-0.138,0.71c0,0.325,0.081,0.592,0.24,0.807
			c0.159,0.214,0.37,0.396,0.632,0.547c0.263,0.152,0.561,0.285,0.892,0.394c0.334,0.111,0.673,0.227,1.022,0.347
			c0.35,0.118,0.691,0.252,1.023,0.401c0.332,0.149,0.63,0.337,0.892,0.563c0.262,0.228,0.473,0.507,0.634,0.837
			c0.158,0.328,0.238,0.734,0.238,1.217c0,0.507-0.087,0.986-0.259,1.432c-0.173,0.445-0.426,0.832-0.759,1.162
			c-0.333,0.331-0.741,0.591-1.225,0.781c-0.484,0.189-1.035,0.282-1.651,0.282c-0.751,0-1.437-0.136-2.055-0.41
			c-0.62-0.272-1.149-0.642-1.587-1.107l0.455-0.746c0.042-0.06,0.096-0.109,0.158-0.15c0.063-0.042,0.131-0.061,0.207-0.061
			c0.114,0,0.242,0.061,0.39,0.183c0.145,0.122,0.328,0.255,0.547,0.402c0.219,0.146,0.484,0.279,0.794,0.401
			c0.312,0.122,0.692,0.183,1.141,0.183c0.374,0,0.707-0.053,0.997-0.154c0.293-0.103,0.541-0.248,0.744-0.436
			c0.202-0.186,0.357-0.409,0.466-0.669c0.108-0.26,0.163-0.549,0.163-0.868c0-0.351-0.081-0.638-0.24-0.863
			c-0.159-0.225-0.37-0.411-0.628-0.565c-0.26-0.151-0.556-0.281-0.89-0.386c-0.331-0.104-0.671-0.212-1.021-0.323
			c-0.348-0.111-0.689-0.24-1.022-0.386c-0.333-0.145-0.628-0.335-0.889-0.567c-0.259-0.232-0.468-0.525-0.628-0.873
			c-0.16-0.349-0.239-0.78-0.239-1.294c0-0.411,0.078-0.808,0.239-1.191c0.159-0.385,0.391-0.726,0.694-1.024
			c0.302-0.296,0.677-0.535,1.122-0.713c0.446-0.179,0.959-0.268,1.539-0.268c0.649,0,1.24,0.103,1.776,0.309
			c0.535,0.205,1.003,0.5,1.404,0.89L126.447,67.385z"/>
		<path fill="#FFFFFF" d="M137.01,65.568v1.322h-3.757v10.305h-1.573V66.89h-3.774v-1.322H137.01z"/>
		<path fill="#FFFFFF" d="M140.53,77.195h-1.573V65.568h1.573V77.195z"/>
		<path fill="#FFFFFF" d="M154.445,71.385c0,0.546-0.055,1.065-0.166,1.558c-0.11,0.492-0.272,0.95-0.484,1.375
			c-0.211,0.425-0.467,0.81-0.768,1.156c-0.305,0.344-0.644,0.648-1.024,0.901l2.986,3.221h-1.299c-0.194,0-0.368-0.027-0.519-0.082
			c-0.151-0.054-0.289-0.148-0.413-0.284l-2.045-2.221c-0.308,0.098-0.629,0.173-0.962,0.226c-0.332,0.053-0.68,0.082-1.042,0.082
			c-0.856,0-1.634-0.145-2.338-0.435c-0.703-0.288-1.306-0.697-1.809-1.222c-0.503-0.523-0.891-1.15-1.169-1.878
			c-0.275-0.727-0.413-1.525-0.413-2.396c0-0.87,0.138-1.67,0.413-2.398c0.278-0.727,0.665-1.354,1.169-1.881
			c0.504-0.527,1.107-0.937,1.809-1.231c0.704-0.29,1.482-0.437,2.338-0.437c0.854,0,1.635,0.147,2.34,0.437
			c0.705,0.294,1.31,0.704,1.814,1.231c0.502,0.527,0.891,1.154,1.168,1.881C154.307,69.715,154.445,70.514,154.445,71.385z
			 M152.831,71.385c0-0.715-0.097-1.356-0.293-1.922c-0.194-0.57-0.471-1.049-0.828-1.443c-0.356-0.391-0.788-0.693-1.298-0.903
			c-0.508-0.212-1.076-0.316-1.703-0.316c-0.622,0-1.188,0.104-1.697,0.316c-0.508,0.21-0.943,0.512-1.302,0.903
			c-0.36,0.394-0.636,0.873-0.832,1.443c-0.195,0.566-0.29,1.206-0.29,1.922c0,0.715,0.096,1.354,0.29,1.92
			c0.195,0.563,0.472,1.044,0.832,1.436c0.359,0.392,0.794,0.692,1.302,0.899c0.509,0.209,1.075,0.312,1.697,0.312
			c0.626,0,1.194-0.103,1.703-0.312c0.509-0.207,0.942-0.507,1.298-0.899c0.357-0.392,0.634-0.872,0.828-1.436
			C152.734,72.739,152.831,72.099,152.831,71.385z"/>
		<path fill="#FFFFFF" d="M161.114,75.943c0.48,0,0.911-0.08,1.289-0.242c0.378-0.163,0.699-0.389,0.962-0.681
			c0.262-0.292,0.464-0.641,0.601-1.045c0.138-0.409,0.207-0.854,0.207-1.342v-7.064h1.566v7.064c0,0.672-0.108,1.294-0.321,1.867
			c-0.214,0.575-0.519,1.07-0.917,1.49c-0.397,0.419-0.883,0.748-1.456,0.986c-0.573,0.239-1.218,0.357-1.931,0.357
			c-0.714,0-1.358-0.118-1.931-0.357c-0.574-0.238-1.06-0.567-1.46-0.986c-0.401-0.419-0.708-0.915-0.922-1.49
			c-0.213-0.573-0.32-1.195-0.32-1.867v-7.064h1.566v7.058c0,0.486,0.069,0.932,0.207,1.336c0.137,0.408,0.337,0.756,0.6,1.048
			c0.262,0.293,0.585,0.521,0.968,0.686C160.201,75.862,160.633,75.943,161.114,75.943z"/>
		<path fill="#FFFFFF" d="M175.603,65.568v1.281h-5.58v3.861h4.517v1.234h-4.517v3.965h5.58v1.285h-7.164V65.568H175.603z"/>
		<path fill="#FFFFFF" d="M180.399,71.717h4.008v1.225h-4.008V71.717z"/>
		<path fill="#FFFFFF" d="M197.956,74.791c0.085,0,0.164,0.035,0.234,0.106l0.615,0.673c-0.476,0.552-1.052,0.983-1.73,1.291
			c-0.679,0.309-1.498,0.461-2.457,0.461c-0.836,0-1.596-0.144-2.277-0.432c-0.682-0.29-1.264-0.696-1.745-1.218
			c-0.481-0.52-0.856-1.149-1.12-1.877c-0.265-0.732-0.398-1.534-0.398-2.41c0-0.876,0.141-1.681,0.426-2.41
			c0.284-0.731,0.683-1.356,1.199-1.882c0.512-0.524,1.128-0.932,1.842-1.22c0.718-0.29,1.508-0.435,2.374-0.435
			c0.855,0,1.591,0.132,2.212,0.398c0.618,0.265,1.168,0.624,1.65,1.078l-0.513,0.722c-0.035,0.055-0.08,0.098-0.126,0.134
			c-0.049,0.036-0.121,0.053-0.212,0.053c-0.071,0-0.146-0.024-0.225-0.076c-0.078-0.052-0.171-0.116-0.279-0.19
			c-0.109-0.076-0.236-0.159-0.383-0.245c-0.145-0.087-0.318-0.167-0.519-0.242c-0.201-0.077-0.431-0.141-0.697-0.191
			c-0.265-0.052-0.572-0.077-0.916-0.077c-0.624,0-1.191,0.105-1.709,0.32c-0.518,0.214-0.962,0.519-1.334,0.912
			c-0.374,0.395-0.665,0.877-0.874,1.445c-0.206,0.567-0.31,1.202-0.31,1.907c0,0.725,0.104,1.369,0.31,1.938
			c0.208,0.568,0.493,1.048,0.853,1.442c0.361,0.391,0.786,0.689,1.277,0.895c0.492,0.205,1.024,0.31,1.59,0.31
			c0.347,0,0.658-0.021,0.934-0.062c0.277-0.041,0.531-0.104,0.766-0.19c0.235-0.087,0.456-0.198,0.658-0.33
			c0.201-0.134,0.405-0.29,0.611-0.474C197.778,74.832,197.868,74.791,197.956,74.791z"/>
		<path fill="#FFFFFF" d="M211.672,71.385c0,0.871-0.136,1.669-0.412,2.396c-0.275,0.729-0.667,1.355-1.171,1.878
			c-0.501,0.525-1.106,0.933-1.812,1.222c-0.704,0.289-1.484,0.435-2.341,0.435c-0.852,0-1.632-0.145-2.333-0.435
			c-0.705-0.288-1.307-0.697-1.811-1.222c-0.501-0.523-0.894-1.15-1.169-1.878c-0.275-0.727-0.415-1.525-0.415-2.396
			c0-0.87,0.139-1.67,0.415-2.398c0.275-0.727,0.667-1.354,1.169-1.881c0.504-0.527,1.105-0.937,1.811-1.231
			c0.7-0.29,1.48-0.437,2.333-0.437c0.857,0,1.637,0.147,2.341,0.437c0.706,0.294,1.311,0.704,1.812,1.231
			c0.505,0.527,0.896,1.154,1.171,1.881C211.536,69.715,211.672,70.514,211.672,71.385z M210.058,71.385
			c0-0.715-0.097-1.356-0.292-1.922c-0.195-0.57-0.471-1.049-0.827-1.443c-0.357-0.391-0.791-0.693-1.299-0.903
			c-0.511-0.212-1.078-0.316-1.705-0.316c-0.62,0-1.185,0.104-1.695,0.316c-0.507,0.21-0.943,0.512-1.301,0.903
			c-0.36,0.394-0.637,0.873-0.832,1.443c-0.194,0.566-0.293,1.206-0.293,1.922c0,0.715,0.098,1.354,0.293,1.92
			c0.195,0.563,0.472,1.044,0.832,1.436c0.358,0.392,0.794,0.692,1.301,0.899c0.509,0.209,1.075,0.312,1.695,0.312
			c0.628,0,1.195-0.103,1.705-0.312c0.508-0.207,0.941-0.507,1.299-0.899c0.356-0.392,0.632-0.872,0.827-1.436
			C209.961,72.739,210.058,72.099,210.058,71.385z"/>
		<path fill="#FFFFFF" d="M219.741,73.399c0.059,0.144,0.114,0.29,0.167,0.436c0.055-0.151,0.109-0.296,0.171-0.436
			c0.059-0.137,0.125-0.277,0.203-0.416l3.935-7.147c0.07-0.125,0.143-0.2,0.219-0.228c0.076-0.027,0.182-0.04,0.322-0.04h1.163
			v11.627h-1.379V68.65c0-0.114,0.002-0.236,0.008-0.366c0.005-0.13,0.014-0.262,0.022-0.397l-3.982,7.269
			c-0.135,0.242-0.323,0.365-0.568,0.365h-0.227c-0.243,0-0.433-0.123-0.568-0.365l-4.073-7.294
			c0.018,0.139,0.028,0.278,0.035,0.413c0.011,0.135,0.014,0.26,0.014,0.374v8.545h-1.381V65.568h1.162
			c0.142,0,0.248,0.013,0.324,0.04c0.076,0.028,0.148,0.103,0.218,0.228l4.017,7.155C219.618,73.12,219.685,73.257,219.741,73.399z"
			/>
		<path fill="#FFFFFF" d="M234.671,73.399c0.056,0.144,0.112,0.29,0.165,0.436c0.058-0.151,0.111-0.296,0.172-0.436
			c0.059-0.137,0.128-0.277,0.201-0.416l3.934-7.147c0.07-0.125,0.147-0.2,0.219-0.228c0.076-0.027,0.185-0.04,0.325-0.04h1.162
			v11.627h-1.378V68.65c0-0.114,0-0.236,0.006-0.366c0.005-0.13,0.013-0.262,0.024-0.397l-3.983,7.269
			c-0.135,0.242-0.324,0.365-0.567,0.365h-0.228c-0.242,0-0.431-0.123-0.567-0.365l-4.075-7.294c0.02,0.139,0.03,0.278,0.039,0.413
			c0.008,0.135,0.014,0.26,0.014,0.374v8.545h-1.382V65.568h1.162c0.141,0,0.246,0.013,0.322,0.04
			c0.076,0.028,0.149,0.103,0.22,0.228l4.017,7.155C234.549,73.12,234.615,73.257,234.671,73.399z"/>
		<path fill="#FFFFFF" d="M250.846,65.568v1.281h-5.58v3.861h4.516v1.234h-4.516v3.965h5.58v1.285h-7.163V65.568H250.846z"/>
		<path fill="#FFFFFF" d="M254.834,72.343v4.852h-1.561V65.568h3.284c0.734,0,1.37,0.074,1.907,0.223
			c0.537,0.15,0.981,0.363,1.328,0.645c0.347,0.281,0.607,0.621,0.774,1.019c0.166,0.397,0.251,0.841,0.251,1.334
			c0,0.411-0.065,0.794-0.193,1.151c-0.13,0.357-0.32,0.678-0.563,0.962c-0.249,0.284-0.55,0.526-0.903,0.726
			c-0.355,0.2-0.756,0.353-1.205,0.455c0.196,0.114,0.369,0.279,0.52,0.494l3.388,4.618h-1.391c-0.287,0-0.499-0.111-0.634-0.334
			l-3.02-4.154c-0.089-0.13-0.19-0.224-0.299-0.28c-0.108-0.057-0.271-0.084-0.487-0.084H254.834z M254.834,71.197h1.649
			c0.461,0,0.864-0.055,1.215-0.166c0.347-0.11,0.639-0.268,0.877-0.47c0.233-0.204,0.412-0.446,0.531-0.727
			c0.119-0.281,0.177-0.592,0.177-0.932c0-0.693-0.228-1.213-0.685-1.566c-0.456-0.352-1.136-0.528-2.04-0.528h-1.723V71.197z"/>
		<path fill="#FFFFFF" d="M271.376,74.791c0.087,0,0.167,0.035,0.238,0.106l0.615,0.673c-0.474,0.552-1.054,0.983-1.733,1.291
			c-0.677,0.309-1.495,0.461-2.449,0.461c-0.84,0-1.601-0.144-2.281-0.432c-0.683-0.29-1.261-0.696-1.748-1.218
			c-0.479-0.52-0.852-1.149-1.121-1.877c-0.264-0.732-0.394-1.534-0.394-2.41c0-0.876,0.142-1.681,0.426-2.41
			c0.283-0.731,0.682-1.356,1.195-1.882c0.514-0.524,1.129-0.932,1.847-1.22c0.715-0.29,1.508-0.435,2.376-0.435
			c0.85,0,1.585,0.132,2.208,0.398c0.617,0.265,1.17,0.624,1.653,1.078l-0.515,0.722c-0.035,0.055-0.078,0.098-0.126,0.134
			c-0.049,0.036-0.119,0.053-0.212,0.053c-0.07,0-0.143-0.024-0.221-0.076c-0.082-0.052-0.173-0.116-0.282-0.19
			c-0.108-0.076-0.233-0.159-0.379-0.245c-0.149-0.087-0.322-0.167-0.52-0.242c-0.2-0.077-0.433-0.141-0.699-0.191
			c-0.266-0.052-0.568-0.077-0.916-0.077c-0.62,0-1.189,0.105-1.706,0.32c-0.518,0.214-0.964,0.519-1.339,0.912
			c-0.37,0.395-0.661,0.877-0.871,1.445c-0.206,0.567-0.309,1.202-0.309,1.907c0,0.725,0.103,1.369,0.309,1.938
			c0.211,0.568,0.492,1.048,0.853,1.442c0.361,0.391,0.786,0.689,1.279,0.895c0.493,0.205,1.023,0.31,1.59,0.31
			c0.347,0,0.656-0.021,0.932-0.062c0.275-0.041,0.531-0.104,0.766-0.19c0.235-0.087,0.455-0.198,0.656-0.33
			c0.204-0.134,0.41-0.29,0.615-0.474C271.203,74.832,271.292,74.791,271.376,74.791z"/>
		<path fill="#FFFFFF" d="M281.465,65.568v1.281h-5.581v3.861h4.516v1.234h-4.516v3.965h5.581v1.285H274.3V65.568H281.465z"/>
		<path fill="#FFFFFF" d="M296.934,71.385c0,0.871-0.138,1.663-0.415,2.376c-0.273,0.715-0.664,1.326-1.168,1.834
			c-0.501,0.507-1.105,0.903-1.809,1.179c-0.702,0.279-1.481,0.42-2.335,0.42h-4.346V65.568h4.346c0.854,0,1.634,0.139,2.335,0.417
			c0.704,0.279,1.308,0.674,1.809,1.185c0.504,0.511,0.895,1.123,1.168,1.836C296.796,69.721,296.934,70.514,296.934,71.385z
			 M295.319,71.385c0-0.715-0.097-1.353-0.292-1.915c-0.193-0.562-0.472-1.039-0.827-1.429c-0.357-0.389-0.791-0.686-1.3-0.892
			c-0.507-0.205-1.073-0.308-1.693-0.308h-2.764v9.078h2.764c0.621,0,1.186-0.103,1.693-0.308c0.509-0.205,0.943-0.501,1.3-0.889
			c0.355-0.385,0.634-0.86,0.827-1.424C295.222,72.737,295.319,72.099,295.319,71.385z"/>
		<path fill="#FFFFFF" d="M306.242,65.568v1.281h-5.585v3.861h4.521v1.234h-4.521v3.965h5.585v1.285h-7.168V65.568H306.242z"/>
		<path fill="#FFFFFF" d="M316.821,76.048c0.314,0,0.602-0.014,0.867-0.043c0.26-0.029,0.507-0.076,0.74-0.135
			c0.232-0.059,0.452-0.131,0.658-0.214c0.206-0.084,0.411-0.179,0.615-0.287v-2.566h-1.799c-0.103,0-0.188-0.028-0.249-0.088
			c-0.062-0.061-0.095-0.132-0.095-0.22v-0.892h3.573v4.462c-0.293,0.211-0.596,0.396-0.913,0.553
			c-0.32,0.157-0.655,0.288-1.016,0.395c-0.359,0.104-0.745,0.183-1.153,0.234c-0.415,0.05-0.858,0.076-1.342,0.076
			c-0.842,0-1.616-0.144-2.321-0.432c-0.699-0.29-1.308-0.696-1.815-1.218c-0.508-0.52-0.906-1.149-1.185-1.877
			c-0.288-0.732-0.429-1.534-0.429-2.41c0-0.888,0.138-1.697,0.417-2.425c0.279-0.732,0.677-1.356,1.192-1.88
			c0.52-0.521,1.143-0.926,1.871-1.211c0.734-0.288,1.555-0.431,2.465-0.431c0.458,0,0.889,0.035,1.281,0.101
			c0.396,0.068,0.761,0.166,1.103,0.294c0.336,0.125,0.648,0.279,0.937,0.461c0.285,0.18,0.553,0.385,0.802,0.611l-0.447,0.716
			c-0.091,0.145-0.211,0.218-0.355,0.218c-0.089,0-0.184-0.029-0.287-0.088c-0.136-0.077-0.285-0.167-0.452-0.277
			c-0.169-0.108-0.373-0.212-0.615-0.313c-0.241-0.101-0.524-0.186-0.851-0.257c-0.328-0.07-0.715-0.104-1.164-0.104
			c-0.656,0-1.25,0.105-1.778,0.32c-0.531,0.214-0.986,0.521-1.354,0.917c-0.371,0.397-0.658,0.878-0.86,1.444
			c-0.2,0.566-0.3,1.198-0.3,1.903c0,0.736,0.102,1.391,0.312,1.969c0.211,0.574,0.503,1.062,0.88,1.463
			c0.377,0.401,0.827,0.706,1.344,0.917C315.618,75.943,316.192,76.048,316.821,76.048z"/>
		<path fill="#FFFFFF" d="M325.274,72.343v4.852h-1.565V65.568h3.285c0.734,0,1.371,0.074,1.904,0.223
			c0.537,0.15,0.978,0.363,1.327,0.645c0.35,0.281,0.608,0.621,0.775,1.019c0.167,0.397,0.252,0.841,0.252,1.334
			c0,0.411-0.065,0.794-0.196,1.151c-0.129,0.357-0.318,0.678-0.563,0.962c-0.246,0.284-0.547,0.526-0.902,0.726
			c-0.355,0.2-0.756,0.353-1.203,0.455c0.196,0.114,0.369,0.279,0.518,0.494l3.392,4.618h-1.396c-0.286,0-0.498-0.111-0.632-0.334
			l-3.016-4.154c-0.095-0.13-0.193-0.224-0.301-0.28c-0.108-0.057-0.271-0.084-0.487-0.084H325.274z M325.274,71.197h1.647
			c0.458,0,0.864-0.055,1.213-0.166c0.35-0.11,0.643-0.268,0.874-0.47c0.236-0.204,0.413-0.446,0.533-0.727
			c0.119-0.281,0.179-0.592,0.179-0.932c0-0.693-0.227-1.213-0.689-1.566c-0.452-0.352-1.133-0.528-2.036-0.528h-1.72V71.197z"/>
		<path fill="#FFFFFF" d="M344.419,71.385c0,0.871-0.136,1.669-0.412,2.396c-0.275,0.729-0.66,1.355-1.168,1.878
			c-0.501,0.525-1.108,0.933-1.812,1.222c-0.708,0.289-1.488,0.435-2.344,0.435s-1.633-0.145-2.333-0.435
			c-0.704-0.288-1.311-0.697-1.809-1.222c-0.504-0.523-0.894-1.15-1.17-1.878c-0.277-0.727-0.415-1.525-0.415-2.396
			c0-0.87,0.138-1.67,0.415-2.398c0.276-0.727,0.666-1.354,1.17-1.881c0.499-0.527,1.105-0.937,1.809-1.231
			c0.7-0.29,1.477-0.437,2.333-0.437s1.636,0.147,2.344,0.437c0.704,0.294,1.31,0.704,1.812,1.231
			c0.507,0.527,0.893,1.154,1.168,1.881C344.283,69.715,344.419,70.514,344.419,71.385z M342.807,71.385
			c0-0.715-0.097-1.356-0.293-1.922c-0.193-0.57-0.472-1.049-0.826-1.443c-0.358-0.391-0.792-0.693-1.301-0.903
			c-0.509-0.212-1.075-0.316-1.704-0.316c-0.623,0-1.186,0.104-1.696,0.316c-0.509,0.21-0.94,0.512-1.3,0.903
			c-0.361,0.394-0.637,0.873-0.829,1.443c-0.198,0.566-0.295,1.206-0.295,1.922c0,0.715,0.097,1.354,0.295,1.92
			c0.192,0.563,0.468,1.044,0.829,1.436c0.36,0.392,0.791,0.692,1.3,0.899c0.509,0.209,1.073,0.312,1.696,0.312
			c0.629,0,1.195-0.103,1.704-0.312c0.509-0.207,0.943-0.507,1.301-0.899c0.354-0.392,0.632-0.872,0.826-1.436
			C342.71,72.739,342.807,72.099,342.807,71.385z"/>
		<path fill="#FFFFFF" d="M352.527,67.385c-0.048,0.081-0.101,0.141-0.155,0.183c-0.054,0.041-0.126,0.06-0.211,0.06
			c-0.092,0-0.198-0.044-0.32-0.137c-0.122-0.094-0.276-0.195-0.46-0.305c-0.19-0.111-0.412-0.213-0.675-0.306
			c-0.264-0.091-0.581-0.138-0.953-0.138c-0.352,0-0.664,0.049-0.932,0.143c-0.272,0.096-0.499,0.224-0.68,0.387
			c-0.182,0.162-0.316,0.351-0.409,0.572c-0.093,0.219-0.138,0.454-0.138,0.71c0,0.325,0.081,0.592,0.239,0.807
			c0.159,0.214,0.372,0.396,0.633,0.547c0.262,0.152,0.561,0.285,0.894,0.394c0.334,0.111,0.674,0.227,1.021,0.347
			c0.35,0.118,0.691,0.252,1.021,0.401c0.334,0.149,0.631,0.337,0.891,0.563c0.264,0.228,0.474,0.507,0.634,0.837
			c0.16,0.328,0.241,0.734,0.241,1.217c0,0.507-0.089,0.986-0.26,1.432c-0.176,0.445-0.428,0.832-0.761,1.162
			c-0.33,0.331-0.739,0.591-1.222,0.781c-0.488,0.189-1.035,0.282-1.65,0.282c-0.753,0-1.441-0.136-2.059-0.41
			c-0.62-0.272-1.148-0.642-1.587-1.107l0.455-0.746c0.042-0.06,0.094-0.109,0.157-0.15c0.062-0.042,0.132-0.061,0.208-0.061
			c0.111,0,0.241,0.061,0.386,0.183c0.148,0.122,0.331,0.255,0.548,0.402c0.219,0.146,0.487,0.279,0.797,0.401
			c0.312,0.122,0.693,0.183,1.141,0.183c0.373,0,0.706-0.053,0.999-0.154c0.293-0.103,0.54-0.248,0.742-0.436
			c0.204-0.186,0.355-0.409,0.463-0.669c0.109-0.26,0.164-0.549,0.164-0.868c0-0.351-0.08-0.638-0.241-0.863
			c-0.155-0.225-0.363-0.411-0.627-0.565c-0.258-0.151-0.555-0.281-0.885-0.386c-0.336-0.104-0.674-0.212-1.021-0.323
			c-0.35-0.111-0.691-0.24-1.025-0.386c-0.333-0.145-0.628-0.335-0.888-0.567c-0.26-0.232-0.472-0.525-0.631-0.873
			c-0.158-0.349-0.239-0.78-0.239-1.294c0-0.411,0.081-0.808,0.239-1.191c0.159-0.385,0.39-0.726,0.693-1.024
			c0.303-0.296,0.68-0.535,1.127-0.713c0.441-0.179,0.957-0.268,1.536-0.268c0.646,0,1.24,0.103,1.774,0.309
			c0.537,0.205,1.003,0.5,1.406,0.89L352.527,67.385z"/>
	</g>
</g>
</svg>
