<?xml version="1.0" encoding="utf-8"?>
<!-- Generator: Adobe Illustrator 17.0.0, SVG Export Plug-In . SVG Version: 6.00 Build 0)  -->
<!DOCTYPE svg PUBLIC "-//W3C//DTD SVG 1.1//EN" "http://www.w3.org/Graphics/SVG/1.1/DTD/svg11.dtd">
<svg version="1.1" id="Calque_1" xmlns="http://www.w3.org/2000/svg" xmlns:xlink="http://www.w3.org/1999/xlink" x="0px" y="0px"
	 width="300px" height="300px" viewBox="0 0 300 300" enable-background="new 0 0 300 300" xml:space="preserve">
<linearGradient id="SVGID_1_" gradientUnits="userSpaceOnUse" x1="2.7507" y1="149.9522" x2="297.7387" y2="149.9522">
	<stop  offset="0" style="stop-color:#277CBD"/>
	<stop  offset="0.1433" style="stop-color:#4B72B5"/>
	<stop  offset="0.3973" style="stop-color:#6A61A8"/>
	<stop  offset="0.633" style="stop-color:#7B529E"/>
	<stop  offset="0.8412" style="stop-color:#844798"/>
	<stop  offset="1" style="stop-color:#874396"/>
</linearGradient>
<path fill="url(#SVGID_1_)" d="M297.149,185.799c0.084-0.159,0.152-0.322,0.219-0.488c0.06-0.15,0.123-0.298,0.168-0.45
	c0.045-0.155,0.075-0.311,0.107-0.47c0.032-0.166,0.067-0.33,0.083-0.497c0.016-0.16,0.012-0.321,0.012-0.482
	c0-0.163,0.003-0.326-0.013-0.488c-0.016-0.164-0.051-0.326-0.083-0.49c-0.032-0.162-0.061-0.321-0.108-0.478
	c-0.044-0.148-0.106-0.293-0.164-0.44c-0.068-0.171-0.139-0.338-0.226-0.501c-0.027-0.049-0.04-0.103-0.068-0.152
	c-0.048-0.083-0.112-0.15-0.164-0.229c-0.102-0.156-0.207-0.307-0.326-0.452c-0.104-0.127-0.216-0.243-0.331-0.358
	c-0.116-0.116-0.234-0.23-0.363-0.335c-0.142-0.116-0.289-0.218-0.44-0.317c-0.083-0.053-0.151-0.122-0.238-0.171l-45.022-25.994
	c-0.051-0.029-0.106-0.043-0.156-0.071c-0.158-0.084-0.321-0.152-0.485-0.219c-0.151-0.061-0.301-0.124-0.454-0.17
	c-0.154-0.045-0.309-0.075-0.465-0.106c-0.167-0.033-0.333-0.068-0.5-0.084c-0.162-0.016-0.322-0.013-0.484-0.013
	s-0.323-0.003-0.484,0.013c-0.168,0.016-0.333,0.051-0.5,0.084c-0.156,0.031-0.313,0.06-0.465,0.106
	c-0.154,0.045-0.303,0.108-0.454,0.17c-0.166,0.067-0.327,0.135-0.485,0.219c-0.051,0.027-0.106,0.041-0.156,0.071l-97.127,56.077
	l-49.618-28.616v-60.225l53.107-29.879l53.195,30.713c0,0,0.005,0.001,0.008,0.003c0.063,0.036,0.135,0.052,0.2,0.086
	c0.267,0.139,0.545,0.253,0.838,0.343c0.106,0.033,0.21,0.072,0.317,0.099c0.377,0.09,0.764,0.15,1.168,0.151
	c0.005,0,0.009,0.001,0.015,0.001h0.001h0.003c0,0,0.001,0,0.003,0h0.001c0.005,0,0.009-0.001,0.015-0.001
	c0.398-0.001,0.782-0.059,1.155-0.147c0.04-0.009,0.08-0.008,0.12-0.019c0.068-0.017,0.13-0.059,0.198-0.08
	c0.289-0.09,0.565-0.199,0.83-0.337c0.063-0.032,0.13-0.043,0.191-0.078l42.364-23.991c1.597-0.906,2.583-2.599,2.583-4.434V43.406
	c0-0.104-0.024-0.2-0.031-0.303c-0.011-0.191-0.024-0.38-0.057-0.569c-0.028-0.16-0.071-0.314-0.114-0.469
	c-0.044-0.16-0.088-0.321-0.148-0.478c-0.067-0.175-0.15-0.338-0.235-0.502c-0.048-0.095-0.079-0.194-0.134-0.286
	c-0.024-0.04-0.056-0.069-0.08-0.108c-0.1-0.159-0.216-0.303-0.334-0.449c-0.095-0.119-0.184-0.242-0.289-0.35
	c-0.118-0.123-0.25-0.23-0.378-0.339c-0.122-0.104-0.239-0.212-0.369-0.305c-0.139-0.098-0.289-0.175-0.437-0.259
	c-0.045-0.025-0.087-0.055-0.132-0.079c-0.251-0.393-0.539-0.768-0.906-1.092C223.731,13.748,188.64,0.491,152.21,0.491
	c-14.789,0-29.07,2.192-42.571,6.211c-0.293,0.056-0.577,0.138-0.857,0.243C57.406,22.579,17.691,65.189,6.176,118.212
	c-0.067,0.216-0.115,0.436-0.152,0.659c-2.13,10.032-3.273,20.424-3.273,31.082c0,40.763,16.421,77.75,42.973,104.741
	c0.345,0.513,0.787,0.954,1.291,1.312c27.028,26.812,64.208,43.408,105.197,43.408c14.527,0,28.653-2.109,42.067-6.036
	c0.086-0.02,0.167-0.045,0.253-0.071c49.409-14.565,89.007-54.062,102.394-105.839c0.128-0.494,0.154-0.988,0.135-1.474
	c0.008-0.013,0.019-0.021,0.027-0.035C297.107,185.906,297.121,185.851,297.149,185.799z M247.644,163.299l34.838,20.114
	l-89.392,51.689l-34.923-20.141L247.644,163.299z M212.297,107.92V71.57l32.173-19.192V89.7L212.297,107.92z M240.921,42.63
	l-33.733,20.122l-83.35-49.161c9.162-1.903,18.648-2.912,28.366-2.912C184.68,10.681,215.998,22.011,240.921,42.63z M109.97,17.246
	l92.137,54.342v36.249l-88.982-51.375c-0.059-0.033-0.122-0.051-0.18-0.082c-0.155-0.082-0.314-0.15-0.477-0.215
	c-0.156-0.063-0.311-0.124-0.472-0.17c-0.147-0.043-0.295-0.072-0.445-0.1c-0.175-0.035-0.349-0.067-0.525-0.083
	c-0.15-0.013-0.299-0.012-0.45-0.012c-0.175,0-0.347,0.001-0.52,0.019c-0.156,0.016-0.31,0.047-0.465,0.078
	c-0.167,0.033-0.333,0.068-0.497,0.118c-0.148,0.045-0.293,0.104-0.438,0.164c-0.168,0.068-0.333,0.14-0.493,0.227
	c-0.059,0.031-0.12,0.048-0.178,0.082l-88.907,52.548C32.474,65.533,66.652,31.064,109.97,17.246z M15.586,122.938l95.023-56.162
	l30.596,17.665l-93.754,52.747c-0.056,0.032-0.1,0.075-0.155,0.108c-0.159,0.098-0.309,0.206-0.456,0.321
	c-0.123,0.095-0.243,0.188-0.355,0.293c-0.124,0.116-0.237,0.241-0.349,0.369c-0.107,0.122-0.212,0.241-0.306,0.37
	c-0.099,0.136-0.183,0.281-0.267,0.426c-0.079,0.136-0.158,0.27-0.224,0.413c-0.072,0.155-0.128,0.315-0.184,0.478
	c-0.052,0.15-0.103,0.299-0.14,0.453c-0.039,0.158-0.063,0.319-0.087,0.482c-0.025,0.175-0.045,0.349-0.053,0.527
	c-0.003,0.067-0.02,0.131-0.02,0.198v96.949c-19.929-24.097-31.919-54.987-31.919-88.626
	C12.933,140.71,13.859,131.682,15.586,122.938z M55.042,249.598V144.608l33.119-18.634v104.821c0,0.057,0.015,0.111,0.017,0.168
	c0.007,0.182,0.029,0.359,0.055,0.539c0.023,0.159,0.043,0.317,0.079,0.472c0.037,0.156,0.091,0.306,0.143,0.458
	c0.055,0.162,0.107,0.322,0.178,0.476c0.065,0.143,0.147,0.278,0.226,0.416c0.084,0.146,0.164,0.291,0.262,0.428
	c0.094,0.131,0.202,0.25,0.307,0.373c0.111,0.127,0.219,0.254,0.342,0.37c0.111,0.106,0.234,0.198,0.357,0.294
	c0.146,0.115,0.291,0.226,0.449,0.323c0.048,0.029,0.086,0.068,0.135,0.098l88.843,51.292c-8.879,1.772-18.023,2.721-27.349,2.721
	C114.438,289.222,80.156,274.09,55.042,249.598z M193.696,282.9l-95.344-55.046v-35.622l47.107,27.167l0,0l45.085,26.002
	c0.007,0.004,0.013,0.004,0.02,0.008c0.295,0.168,0.616,0.279,0.937,0.385c0.523,0.172,1.053,0.287,1.585,0.287h0.004
	c0,0,0.003,0,0.004,0c0.498,0,0.996-0.096,1.485-0.246c0.362-0.111,0.716-0.243,1.046-0.433c0.004-0.003,0.009-0.003,0.015-0.005
	l88.653-51.261C269.961,237.122,235.808,269.773,193.696,282.9z"/>
</svg>
