<?xml version="1.0" encoding="utf-8"?>
<!-- Generator: Adobe Illustrator 17.0.0, SVG Export Plug-In . SVG Version: 6.00 Build 0)  -->
<!DOCTYPE svg PUBLIC "-//W3C//DTD SVG 1.1//EN" "http://www.w3.org/Graphics/SVG/1.1/DTD/svg11.dtd">
<svg version="1.1" id="Calque_1" xmlns="http://www.w3.org/2000/svg" xmlns:xlink="http://www.w3.org/1999/xlink" x="0px" y="0px"
	 width="229.898px" height="85.895px" viewBox="0 0 229.898 85.895" enable-background="new 0 0 229.898 85.895"
	 xml:space="preserve">
<g>
	<polygon fill="#FFFFFF" points="68.681,58.44 23.685,77.195 6.727,77.195 6.727,58.735 68.681,32.8 	"/>
	<polygon fill="#FFFFFF" points="6.726,25.064 51.723,6.304 68.681,6.304 68.681,24.767 6.726,50.7 	"/>
</g>
<g>
	<path fill="#FFFFFF" d="M114.71,48.937c-3.509,3.575-8.408,5.562-13.44,5.562c-5.031,0-9.732-1.655-13.308-5.23
		C82.864,44.17,82.136,37.88,82.136,30.2c0-7.681,0.729-13.97,5.826-19.068c3.575-3.575,8.276-5.296,13.308-5.296
		c5.032,0,9.932,1.854,13.44,5.429c2.715,2.78,4.104,6.488,4.502,10.196h-8.739c-0.198-2.053-0.927-3.51-2.119-4.966
		c-1.522-1.92-4.171-2.913-7.084-2.913c-2.714,0-5.362,1.125-7.217,3.111c-3.244,3.377-3.244,9.203-3.244,13.507
		s0,10.13,3.244,13.506c1.854,1.986,4.503,3.112,7.217,3.112c2.913,0,5.562-1.06,7.084-2.979c1.192-1.456,1.921-3.111,2.119-5.164
		h8.739C118.815,42.383,117.425,46.156,114.71,48.937z"/>
	<path fill="#FFFFFF" d="M153.44,53.638l-3.046-9.004h-18.671l-3.045,9.004h-8.607l16.485-46.941h9.336l16.485,46.941H153.44z
		 M141.059,17.157l-6.688,19.796h13.374L141.059,17.157z"/>
	<path fill="#FFFFFF" d="M199.32,48.605c-3.112,3.244-7.812,5.032-13.176,5.032H167.87V6.696h18.273
		c5.363,0,10.063,1.788,13.176,5.032c4.833,4.965,5.495,11.917,5.495,18.405S204.153,43.641,199.32,48.605z M192.765,17.024
		c-1.589-1.589-3.906-2.648-6.621-2.648h-9.732v31.582h9.732c2.715,0,5.032-1.06,6.621-2.648c3.311-3.311,3.376-8.872,3.376-13.176
		S196.075,20.335,192.765,17.024z"/>
	<path fill="#FFFFFF" d="M213.155,53.638V6.696h8.674v46.941H213.155z"/>
</g>
</svg>
