<?xml version="1.0" encoding="utf-8"?>
<!-- Generator: Adobe Illustrator 17.0.0, SVG Export Plug-In . SVG Version: 6.00 Build 0)  -->
<!DOCTYPE svg PUBLIC "-//W3C//DTD SVG 1.1//EN" "http://www.w3.org/Graphics/SVG/1.1/DTD/svg11.dtd">
<svg version="1.1" id="Calque_1" xmlns="http://www.w3.org/2000/svg" xmlns:xlink="http://www.w3.org/1999/xlink" x="0px" y="0px"
	 width="283.465px" height="283.465px" viewBox="0 0 283.465 283.465" enable-background="new 0 0 283.465 283.465"
	 xml:space="preserve">
<g>
	<path fill="#fff" d="M251.667,168.558c0.063-0.119,0.114-0.241,0.164-0.365c0.045-0.112,0.092-0.223,0.126-0.337
		c0.034-0.116,0.056-0.233,0.08-0.352c0.024-0.124,0.05-0.247,0.062-0.372c0.012-0.12,0.009-0.24,0.009-0.361
		c0-0.122,0.002-0.244-0.01-0.365c-0.012-0.123-0.038-0.244-0.062-0.367c-0.024-0.121-0.046-0.24-0.081-0.358
		c-0.033-0.111-0.079-0.219-0.123-0.329c-0.051-0.128-0.104-0.253-0.169-0.375c-0.02-0.037-0.03-0.077-0.051-0.114
		c-0.036-0.062-0.084-0.112-0.123-0.171c-0.076-0.117-0.155-0.23-0.244-0.338c-0.078-0.095-0.162-0.182-0.248-0.268
		c-0.087-0.087-0.175-0.172-0.272-0.251c-0.106-0.087-0.216-0.163-0.329-0.237c-0.062-0.04-0.113-0.091-0.178-0.128l-33.691-19.452
		c-0.038-0.022-0.079-0.032-0.117-0.053c-0.118-0.063-0.24-0.114-0.363-0.164c-0.113-0.046-0.225-0.093-0.34-0.127
		c-0.115-0.034-0.231-0.056-0.348-0.079c-0.125-0.025-0.249-0.051-0.374-0.063c-0.121-0.012-0.241-0.01-0.362-0.01
		c-0.121,0-0.242-0.002-0.362,0.01c-0.126,0.012-0.249,0.038-0.374,0.063c-0.117,0.023-0.234,0.045-0.348,0.079
		c-0.115,0.034-0.227,0.081-0.34,0.127c-0.124,0.05-0.245,0.101-0.363,0.164c-0.038,0.02-0.079,0.031-0.117,0.053l-72.682,41.964
		l-37.13-21.414V119.5l39.741-22.359l39.807,22.983c0,0,0.004,0.001,0.006,0.002c0.047,0.027,0.101,0.039,0.15,0.064
		c0.2,0.104,0.408,0.189,0.627,0.257c0.079,0.025,0.157,0.054,0.237,0.074c0.282,0.067,0.572,0.112,0.874,0.113
		c0.004,0,0.007,0.001,0.011,0.001l0.001,0l0.002,0c0,0,0.001,0,0.002,0l0.001,0c0.004,0,0.007-0.001,0.011-0.001
		c0.298-0.001,0.585-0.044,0.864-0.11c0.03-0.007,0.06-0.006,0.09-0.014c0.051-0.013,0.097-0.044,0.148-0.06
		c0.216-0.067,0.423-0.149,0.621-0.252c0.047-0.024,0.097-0.032,0.143-0.058l31.702-17.953c1.195-0.678,1.933-1.945,1.933-3.318
		V62.002c0-0.078-0.018-0.15-0.023-0.227c-0.008-0.143-0.018-0.284-0.043-0.426c-0.021-0.12-0.053-0.235-0.085-0.351
		c-0.033-0.12-0.066-0.24-0.111-0.358c-0.05-0.131-0.112-0.253-0.176-0.376c-0.036-0.071-0.059-0.145-0.1-0.214
		c-0.018-0.03-0.042-0.052-0.06-0.081c-0.075-0.119-0.162-0.227-0.25-0.336c-0.071-0.089-0.138-0.181-0.216-0.262
		c-0.088-0.092-0.187-0.172-0.283-0.254c-0.091-0.078-0.179-0.159-0.276-0.228c-0.104-0.073-0.216-0.131-0.327-0.194
		c-0.034-0.019-0.065-0.041-0.099-0.059c-0.188-0.294-0.403-0.575-0.678-0.817c-20.424-18.011-46.684-27.931-73.945-27.931
		c-11.067,0-21.754,1.64-31.857,4.648c-0.219,0.042-0.432,0.103-0.641,0.182c-38.446,11.699-68.166,43.585-76.783,83.263
		c-0.05,0.162-0.086,0.326-0.114,0.493c-1.594,7.507-2.449,15.284-2.449,23.259c0,30.504,12.288,58.182,32.158,78.38
		c0.258,0.384,0.589,0.714,0.966,0.982c20.226,20.064,48.048,32.483,78.721,32.483c10.871,0,21.442-1.578,31.48-4.517
		c0.064-0.015,0.125-0.034,0.189-0.053c36.974-10.899,66.606-40.456,76.624-79.202c0.096-0.37,0.115-0.739,0.101-1.103
		c0.006-0.01,0.014-0.016,0.02-0.026C251.636,168.638,251.646,168.597,251.667,168.558z M214.621,151.721l26.07,15.052
		l-66.894,38.68l-26.134-15.072L214.621,151.721z M188.17,110.279V83.078l24.076-14.362v27.929L188.17,110.279z M209.59,61.421
		l-25.243,15.058l-62.373-36.788c6.856-1.424,13.955-2.179,21.227-2.179C167.504,37.513,190.94,45.992,209.59,61.421z
		 M111.597,42.426l68.948,40.665v27.126l-66.587-38.445c-0.044-0.025-0.091-0.038-0.135-0.061c-0.116-0.061-0.235-0.112-0.357-0.161
		c-0.117-0.047-0.233-0.093-0.353-0.127c-0.11-0.032-0.221-0.054-0.333-0.075c-0.131-0.026-0.261-0.05-0.393-0.062
		c-0.112-0.01-0.224-0.009-0.337-0.009c-0.131,0-0.26,0.001-0.389,0.014c-0.117,0.012-0.232,0.035-0.348,0.058
		c-0.125,0.025-0.249,0.051-0.372,0.088c-0.111,0.034-0.219,0.078-0.328,0.123c-0.126,0.051-0.249,0.105-0.369,0.17
		c-0.044,0.023-0.09,0.036-0.133,0.061l-66.531,39.323C53.605,78.56,79.181,52.766,111.597,42.426z M40.967,121.518l71.108-42.027
		l22.896,13.219l-70.158,39.472c-0.042,0.024-0.075,0.056-0.116,0.081c-0.119,0.073-0.231,0.154-0.341,0.24
		c-0.092,0.071-0.182,0.141-0.266,0.219c-0.093,0.087-0.177,0.18-0.261,0.276c-0.08,0.091-0.159,0.18-0.229,0.277
		c-0.074,0.102-0.137,0.21-0.2,0.319c-0.059,0.102-0.118,0.202-0.168,0.309c-0.054,0.116-0.096,0.236-0.138,0.358
		c-0.039,0.112-0.077,0.224-0.105,0.339c-0.029,0.118-0.047,0.239-0.065,0.361c-0.019,0.131-0.034,0.261-0.04,0.394
		c-0.002,0.05-0.015,0.098-0.015,0.148v72.549c-14.913-18.032-23.886-41.148-23.886-66.321
		C38.982,134.817,39.675,128.061,40.967,121.518z M70.493,216.3v-78.566l24.784-13.944v78.44c0,0.043,0.011,0.083,0.013,0.126
		c0.005,0.136,0.022,0.269,0.041,0.403c0.017,0.119,0.032,0.237,0.059,0.353c0.028,0.117,0.068,0.229,0.107,0.343
		c0.041,0.121,0.08,0.241,0.133,0.356c0.049,0.107,0.11,0.208,0.169,0.311c0.063,0.109,0.123,0.218,0.196,0.32
		c0.07,0.098,0.151,0.187,0.23,0.279c0.083,0.095,0.164,0.19,0.256,0.277c0.083,0.079,0.175,0.148,0.267,0.22
		c0.109,0.086,0.218,0.169,0.336,0.242c0.036,0.022,0.064,0.051,0.101,0.073l66.483,38.383c-6.644,1.326-13.487,2.036-20.466,2.036
		C114.94,245.952,89.286,234.628,70.493,216.3z M174.251,241.221l-71.348-41.192v-26.657l35.251,20.33l0,0l33.738,19.458
		c0.005,0.003,0.01,0.003,0.015,0.006c0.221,0.126,0.461,0.209,0.701,0.288c0.391,0.129,0.788,0.215,1.186,0.215l0.003,0
		c0,0,0.002,0,0.003,0c0.373,0,0.745-0.072,1.111-0.184c0.271-0.083,0.536-0.182,0.783-0.324c0.003-0.002,0.007-0.002,0.011-0.004
		l66.341-38.36C231.322,206.964,205.764,231.398,174.251,241.221z"/>
</g>
</svg>
