<?xml version="1.0" encoding="utf-8"?>
<!-- Generator: Adobe Illustrator 17.0.0, SVG Export Plug-In . SVG Version: 6.00 Build 0)  -->
<!DOCTYPE svg PUBLIC "-//W3C//DTD SVG 1.1//EN" "http://www.w3.org/Graphics/SVG/1.1/DTD/svg11.dtd">
<svg version="1.1" id="Calque_1" xmlns="http://www.w3.org/2000/svg" xmlns:xlink="http://www.w3.org/1999/xlink" x="0px" y="0px"
	 width="202.398px" height="85.895px" viewBox="0 0 202.398 85.895" enable-background="new 0 0 202.398 85.895"
	 xml:space="preserve">
<g>
	<polygon fill="#FFFFFF" points="68.681,58.44 23.685,77.195 6.727,77.195 6.727,58.735 68.681,32.8 	"/>
	<polygon fill="#FFFFFF" points="6.726,25.064 51.723,6.304 68.681,6.304 68.681,24.767 6.726,50.7 	"/>
</g>
<g>
	<path fill="#FFFFFF" d="M123.847,53.638V20.137l-12.183,32.839h-6.289L93.259,19.739v33.898h-8.276V6.696h11.521l12.314,33.435
		l12.381-33.435h10.925v46.941H123.847z"/>
	<path fill="#FFFFFF" d="M162.575,53.638h-9.401L137.615,6.696h9.07l11.388,35.818l11.322-35.818h8.606L162.575,53.638z"/>
	<path fill="#FFFFFF" d="M183.494,53.638V6.696h8.674v46.941H183.494z"/>
</g>
</svg>
