<?xml version="1.0" encoding="UTF-8" standalone="no"?>
<svg width="27px" height="20px" viewBox="0 0 27 20" version="1.1" xmlns="http://www.w3.org/2000/svg" xmlns:xlink="http://www.w3.org/1999/xlink">
    <!-- Generator: Sketch 40.1 (33804) - http://www.bohemiancoding.com/sketch -->
    <title>Group</title>
    <desc>Created with Sketch.</desc>
    <defs></defs>
    <g id="Page-1" stroke="none" stroke-width="1" fill="none" fill-rule="evenodd">
        <g id="Dashboard" transform="translate(-173.000000, -329.000000)" fill="#00A6FF">
            <g id="BARRE-LATERALE" transform="translate(-1.000000, 0.000000)">
                <g id="COMMERCIAL" transform="translate(1.000000, 218.000000)">
                    <g id="Group" transform="translate(173.000000, 111.244939)">
                        <path d="M2.85633433,0.545731567 C1.50128558,0.545731567 0.391158236,1.65164283 0.391158236,3.00155215 L0.391158236,16.5085746 C0.391158236,17.8584778 1.50128558,18.9643952 2.85633433,18.9643952 L23.8103311,18.9643952 C25.1653811,18.9643952 26.2755084,17.8584778 26.2755084,16.5085746 L26.2755084,3.00155215 C26.2755084,1.65164283 25.1653811,0.545731567 23.8103311,0.545731567 L2.85633433,0.545731567 L2.85633433,0.545731567 Z M2.85633433,1.77364186 L23.8103311,1.77364186 C23.9262776,1.77364186 24.0322216,1.79338052 24.1377373,1.8216071 L14.180737,11.8271666 C13.6959478,12.3151995 12.9505587,12.3151688 12.4666692,11.8271666 L2.53855772,1.81201406 C2.64056671,1.78579817 2.7447204,1.77364186 2.85633433,1.77364186 L2.85633433,1.77364186 Z M1.67189425,2.69457458 L9.00964496,10.0908093 L1.68152385,16.863502 C1.64812995,16.7502887 1.62374628,16.6343126 1.62374628,16.5085746 L1.62374628,3.00155215 C1.62374628,2.89336098 1.64691894,2.79374982 1.67189425,2.69457458 L1.67189425,2.69457458 Z M24.9947724,2.69457458 C25.0197323,2.79374982 25.0429204,2.89336098 25.0429204,3.00155215 L25.0429204,16.5085746 C25.0429204,16.6343126 25.018546,16.7502887 24.9851428,16.863502 L17.6570205,10.0812316 L24.9947724,2.69457458 L24.9947724,2.69457458 Z M16.7807274,10.9541838 L24.0799597,17.6981127 C23.9923227,17.7171453 23.9046487,17.7364849 23.8103311,17.7364849 L2.85633433,17.7364849 C2.76201669,17.7364849 2.6743427,17.7171453 2.58670569,17.6981127 L9.87630843,10.9637922 L11.5903762,12.690541 C12.5418972,13.6501529 14.1051085,13.6488329 15.0570301,12.690541 L16.7807274,10.9541838 L16.7807274,10.9541838 Z" id="Shape"></path>
                    </g>
                </g>
            </g>
        </g>
    </g>
</svg>