<?xml version="1.0" encoding="utf-8"?>
<!-- Generator: Adobe Illustrator 17.0.0, SVG Export Plug-In . SVG Version: 6.00 Build 0)  -->
<!DOCTYPE svg PUBLIC "-//W3C//DTD SVG 1.1//EN" "http://www.w3.org/Graphics/SVG/1.1/DTD/svg11.dtd">
<svg version="1.1" id="Calque_1" xmlns="http://www.w3.org/2000/svg" xmlns:xlink="http://www.w3.org/1999/xlink" x="0px" y="0px"
	 width="300px" height="300px" viewBox="0 0 300 300" enable-background="new 0 0 300 300" xml:space="preserve">
<g>
	<path fill="#CD242E" d="M150,291.57c-1.819-1.07-5.098-5.441-7.113-8.128c-4.66-6.213-9.479-12.637-16.656-14.057
		c-0.974-0.193-1.991-0.291-3.021-0.291c-6.306,0-12.339,3.569-18.173,7.021c-2.723,1.611-7.124,4.215-9.24,4.646
		c-1.219-1.775-2.519-6.865-3.323-10.015c-1.937-7.581-3.939-15.421-10.079-19.532c-2.934-1.965-6.623-2.919-11.277-2.919
		c-3.512,0-7.189,0.521-10.745,1.026c-3.141,0.446-6.107,0.867-8.482,0.867c-0.964,0-1.586-0.072-1.964-0.142
		c-0.427-2.105,0.302-7.238,0.753-10.419c1.105-7.786,2.249-15.837-1.892-22.021c-4.111-6.141-11.951-8.144-19.533-10.079
		c-3.152-0.806-8.248-2.107-10.02-3.327c0.418-2.083,3.032-6.501,4.65-9.236c4.024-6.803,8.186-13.837,6.73-21.195
		c-1.419-7.177-7.844-11.996-14.057-16.656C13.872,155.099,9.5,151.819,8.43,150c1.07-1.819,5.442-5.098,8.127-7.113
		c6.213-4.66,12.637-9.479,14.057-16.656c1.456-7.358-2.706-14.393-6.73-21.195c-1.619-2.736-4.232-7.153-4.65-9.237
		c1.771-1.22,6.867-2.521,10.02-3.327c7.582-1.937,15.421-3.939,19.533-10.079c4.14-6.185,2.997-14.236,1.892-22.022
		c-0.451-3.18-1.18-8.312-0.753-10.418c0.377-0.07,1-0.142,1.964-0.142c2.375,0,5.342,0.421,8.483,0.867
		c3.556,0.505,7.233,1.027,10.745,1.027c4.654,0,8.343-0.955,11.277-2.918c6.14-4.111,8.143-11.951,10.079-19.533
		c0.804-3.149,2.104-8.239,3.323-10.015c2.117,0.432,6.517,3.035,9.239,4.645c5.834,3.452,11.867,7.021,18.173,7.021
		c1.031,0,2.048-0.098,3.022-0.291c7.177-1.419,11.996-7.844,16.656-14.057c2.015-2.686,5.294-7.058,7.113-8.127
		c1.819,1.07,5.099,5.442,7.112,8.127c4.66,6.213,9.479,12.637,16.656,14.057c0.975,0.192,1.991,0.29,3.022,0.29
		c6.306,0,12.339-3.569,18.173-7.021c2.723-1.611,7.125-4.215,9.24-4.646c1.219,1.775,2.52,6.866,3.324,10.016
		c1.937,7.581,3.938,15.421,10.079,19.532c2.934,1.964,6.622,2.919,11.276,2.919c3.512,0,7.188-0.522,10.745-1.027
		c3.141-0.446,6.107-0.867,8.483-0.867c0.963,0,1.586,0.072,1.963,0.142c0.428,2.105-0.301,7.239-0.753,10.419
		c-1.105,7.786-2.248,15.837,1.893,22.021c4.11,6.14,11.95,8.143,19.532,10.079c3.151,0.805,8.247,2.106,10.019,3.327
		c-0.418,2.083-3.031,6.501-4.65,9.237c-4.023,6.802-8.186,13.836-6.729,21.194c1.42,7.178,7.844,11.996,14.057,16.656
		c2.687,2.015,7.058,5.294,8.128,7.113c-1.07,1.819-5.441,5.098-8.128,7.112c-6.213,4.66-12.637,9.479-14.057,16.656
		c-1.456,7.358,2.706,14.393,6.73,21.194c1.618,2.736,4.232,7.154,4.649,9.238c-1.771,1.22-6.867,2.521-10.021,3.327
		c-7.581,1.937-15.42,3.938-19.531,10.078c-4.141,6.185-2.998,14.236-1.893,22.022c0.451,3.18,1.181,8.313,0.753,10.419
		c-0.378,0.069-1,0.142-1.964,0.142c-2.375,0-5.342-0.421-8.482-0.867c-3.556-0.505-7.233-1.026-10.745-1.026
		c-4.654,0-8.343,0.954-11.276,2.919c-6.141,4.11-8.144,11.95-10.079,19.532c-0.805,3.149-2.104,8.238-3.324,10.014
		c-2.117-0.431-6.518-3.034-9.24-4.645c-5.834-3.452-11.866-7.021-18.173-7.021c-1.03,0-2.047,0.098-3.021,0.291
		c-7.178,1.42-11.997,7.844-16.657,14.057C155.098,286.129,151.819,290.5,150,291.57z"/>
	<path fill="#CD242E" d="M150,20.409c0.25,0.331,0.489,0.651,0.713,0.949c5.043,6.723,11.318,15.09,21.504,17.105
		c1.484,0.294,3.023,0.442,4.574,0.442c8.495,0,15.801-4.322,22.246-8.135c0.173-0.103,0.354-0.209,0.539-0.319
		c0.07,0.271,0.136,0.533,0.2,0.783c2.092,8.192,4.696,18.387,13.38,24.201c4.293,2.874,9.438,4.271,15.728,4.271
		c4.077,0,8.217-0.588,11.87-1.106c0.251-0.036,0.503-0.071,0.754-0.107c-0.037,0.261-0.073,0.514-0.107,0.755
		c-1.193,8.407-2.679,18.869,3.165,27.597c5.814,8.684,16.009,11.288,24.201,13.38c0.25,0.064,0.511,0.131,0.782,0.2
		c-0.109,0.185-0.216,0.365-0.318,0.538c-4.34,7.336-9.742,16.466-7.693,26.821c2.015,10.185,10.382,16.461,17.104,21.503
		c0.298,0.224,0.618,0.463,0.949,0.713c-0.331,0.25-0.651,0.489-0.949,0.713c-6.723,5.043-15.09,11.318-17.104,21.503
		c-2.048,10.355,3.353,19.485,7.693,26.821c0.103,0.173,0.209,0.353,0.319,0.539c-0.271,0.069-0.533,0.136-0.783,0.2
		c-8.192,2.092-18.387,4.696-24.201,13.38c-5.844,8.729-4.358,19.191-3.165,27.597c0.034,0.241,0.07,0.494,0.107,0.755
		c-0.252-0.036-0.505-0.071-0.756-0.107c-3.652-0.518-7.792-1.106-11.867-1.106c-6.29,0-11.435,1.397-15.729,4.271
		c-8.684,5.814-11.288,16.009-13.38,24.201c-0.064,0.25-0.131,0.512-0.2,0.782c-0.186-0.11-0.366-0.216-0.539-0.319
		c-6.445-3.813-13.75-8.134-22.244-8.136c-1.551,0-3.09,0.149-4.577,0.442c-10.185,2.015-16.461,10.382-21.503,17.104
		c-0.224,0.298-0.463,0.618-0.713,0.949c-0.25-0.331-0.489-0.651-0.713-0.949c-5.043-6.723-11.318-15.09-21.504-17.105
		c-1.484-0.294-3.023-0.442-4.573-0.442c-8.496-0.001-15.802,4.322-22.248,8.136c-0.173,0.103-0.353,0.209-0.539,0.318
		c-0.069-0.271-0.136-0.533-0.2-0.782c-2.092-8.192-4.696-18.387-13.38-24.201c-4.293-2.874-9.438-4.271-15.728-4.271
		c-4.076,0-8.216,0.588-11.869,1.106c-0.251,0.036-0.503,0.071-0.755,0.107c0.037-0.261,0.073-0.514,0.107-0.755
		c1.193-8.406,2.679-18.869-3.165-27.597c-5.814-8.684-16.009-11.288-24.201-13.38c-0.25-0.064-0.512-0.131-0.782-0.2
		c0.109-0.185,0.216-0.365,0.318-0.539c4.34-7.336,9.742-16.465,7.693-26.821c-2.015-10.185-10.382-16.461-17.104-21.503
		c-0.298-0.224-0.618-0.463-0.949-0.713c0.331-0.25,0.651-0.489,0.949-0.713c6.723-5.043,15.09-11.318,17.104-21.503
		c2.048-10.355-3.353-19.485-7.693-26.821c-0.103-0.173-0.209-0.353-0.319-0.539c0.271-0.069,0.533-0.136,0.783-0.2
		c8.192-2.092,18.387-4.696,24.201-13.38c5.844-8.729,4.358-19.191,3.165-27.597c-0.034-0.241-0.07-0.494-0.107-0.755
		c0.252,0.036,0.504,0.071,0.755,0.107c3.653,0.519,7.793,1.106,11.87,1.106c6.29,0,11.434-1.397,15.728-4.271
		c8.684-5.814,11.288-16.009,13.38-24.201c0.064-0.249,0.131-0.512,0.2-0.782c0.185,0.109,0.365,0.216,0.538,0.318
		c6.446,3.814,13.752,8.136,22.247,8.136c1.55,0,3.089-0.149,4.574-0.442c10.185-2.015,16.461-10.382,21.503-17.104
		C149.511,21.06,149.75,20.74,150,20.409 M150,0.298c-9.329,0-16.504,20.724-25.321,22.468c-0.476,0.094-0.965,0.138-1.469,0.138
		c-8.195,0-19.901-11.728-27.939-11.728c-0.908,0-1.771,0.15-2.575,0.483c-8.505,3.527-7.192,25.416-14.752,30.477
		c-1.743,1.167-4.12,1.567-6.827,1.567c-5.891,0-13.345-1.894-19.228-1.894c-3.226,0-5.98,0.57-7.744,2.334
		c-6.459,6.458,3.093,26.181-2.007,33.798c-5.061,7.56-26.951,6.247-30.478,14.752c-3.466,8.359,12.903,22.899,11.106,31.984
		C21.023,133.496,0.298,140.671,0.298,150c0,9.329,20.724,16.504,22.468,25.321c1.797,9.085-14.572,23.625-11.106,31.984
		c3.527,8.505,25.416,7.192,30.477,14.752c5.1,7.618-4.452,27.34,2.006,33.798c1.764,1.764,4.517,2.334,7.744,2.334
		c5.882,0,13.337-1.894,19.227-1.894c2.707,0,5.084,0.4,6.827,1.567c7.56,5.061,6.247,26.951,14.752,30.478
		c0.805,0.334,1.666,0.483,2.575,0.483c8.039,0,19.745-11.728,27.939-11.728c0.503,0,0.994,0.044,1.469,0.138
		c8.817,1.744,15.992,22.468,25.321,22.468c9.329,0,16.504-20.724,25.321-22.468c0.476-0.094,0.965-0.138,1.469-0.138
		c8.195,0.001,19.901,11.728,27.939,11.728c0.908,0,1.771-0.15,2.575-0.483c8.505-3.527,7.192-25.416,14.752-30.477
		c1.744-1.167,4.119-1.567,6.827-1.567c5.891,0,13.346,1.894,19.228,1.894c3.226,0,5.98-0.57,7.744-2.334
		c6.459-6.458-3.093-26.181,2.007-33.798c5.061-7.56,26.951-6.247,30.478-14.752c3.466-8.359-12.903-22.899-11.106-31.984
		c1.744-8.817,22.468-15.992,22.468-25.321c0-9.329-20.724-16.504-22.468-25.321c-1.797-9.085,14.572-23.625,11.106-31.984
		c-3.527-8.505-25.416-7.192-30.477-14.752c-5.1-7.618,4.452-27.34-2.007-33.798c-1.764-1.764-4.517-2.334-7.744-2.334
		c-5.882,0-13.337,1.894-19.227,1.894c-2.707,0-5.084-0.4-6.827-1.567c-7.56-5.061-6.247-26.951-14.752-30.478
		c-0.805-0.334-1.666-0.484-2.575-0.484c-8.039,0-19.745,11.728-27.939,11.728c-0.503,0-0.994-0.044-1.469-0.138
		C166.504,21.023,159.329,0.298,150,0.298L150,0.298z"/>
</g>
<g>
	<path fill="#FFFFFF" d="M58.843,123.126h12.93l23.43,41.156v-41.156h11.492v59.026H94.365l-24.029-41.881v41.881H58.843V123.126z"
		/>
	<path fill="#FFFFFF" d="M161.917,133.577h-31.234v12.534h28.671v10.252h-28.671v15.176h32.676v10.612h-44.73v-59.025h43.288
		V133.577L161.917,133.577z"/>
	<path fill="#FFFFFF" d="M180.998,123.126l7.793,33.802l1.697,9.406l1.702-9.214l6.667-33.994h13.014l7.014,33.797l1.796,9.411
		l1.822-9.046l7.869-34.162h12.557l-16.605,59.026h-11.81l-7.128-34.518l-2.082-11.413l-2.082,11.413l-7.128,34.518h-11.455
		l-16.737-59.026H180.998z"/>
</g>
</svg>
