<?xml version="1.0" encoding="UTF-8" standalone="no"?>
<svg width="24px" height="24px" viewBox="0 0 24 24" version="1.1" xmlns="http://www.w3.org/2000/svg" xmlns:xlink="http://www.w3.org/1999/xlink">
    <!-- Generator: Sketch 40.1 (33804) - http://www.bohemiancoding.com/sketch -->
    <title>Group</title>
    <desc>Created with Sketch.</desc>
    <defs>
        <path d="M12.7252747,14.1538462 C12.4615385,14.1758242 12.2197802,14.043956 11.978022,13.9120879 C9.75824176,12.6153846 7.86813187,10.7692308 6.54945055,8.57142857 C6.30769231,8.1978022 6.08791209,7.75824176 6.17582418,7.31868132 C6.32967033,6.48351648 7.38461538,6.15384615 7.69230769,5.36263736 C7.97802198,4.68131868 7.6043956,3.91208791 7.16483516,3.31868132 C6.43956044,2.32967033 5.51648352,1.47252747 4.46153846,0.835164835 C3.95604396,0.527472527 3.40659341,0.263736264 2.81318681,0.21978022 C0.153846154,0.0879120879 2.04281037e-13,4.52747253 0.351648352,6.26373626 C0.725274725,8.06593407 1.62637363,9.73626374 2.68131868,11.2527473 C5.16483516,14.8571429 8.57142857,17.9120879 12.7032967,19.3626374 C14.1538462,19.8681319 15.7142857,20.1758242 17.2087912,19.8241758 C17.956044,19.6483516 18.6593407,19.3186813 19.1868132,18.7472527 C19.7142857,18.1978022 20,17.4065934 19.8681319,16.6593407 C19.7362637,15.8901099 19.2087912,15.2747253 18.6813187,14.7252747 C17.9120879,13.9340659 17.0549451,13.2307692 16.1318681,12.6153846 C15.956044,12.5054945 15.7802198,12.3956044 15.5824176,12.3736264 C15.3626374,12.3516484 15.1648352,12.4615385 14.967033,12.5714286 C14.4175824,12.8791209 13.9120879,13.2527473 13.4725275,13.6703297 C13.2747253,13.8681319 13.0549451,14.0659341 12.7912088,14.1098901 C12.7692308,14.1318681 12.7472527,14.1538462 12.7252747,14.1538462 L12.7252747,14.1538462 Z" id="path-1"></path>
        <mask id="mask-2" maskContentUnits="userSpaceOnUse" maskUnits="objectBoundingBox" x="-1.5" y="-1.5" width="22.6866631" height="22.7582022">
            <rect x="-1.28657022" y="-1.28309491" width="22.6866631" height="22.7582022" fill="white"></rect>
            <use xlink:href="#path-1" fill="black"></use>
        </mask>
    </defs>
    <g id="Page-1" stroke="none" stroke-width="1" fill="none" fill-rule="evenodd">
        <g id="Dashboard" transform="translate(-19.000000, -328.000000)" stroke="#009CF1" stroke-width="3">
            <g id="BARRE-LATERALE" transform="translate(-1.000000, 0.000000)">
                <g id="COMMERCIAL" transform="translate(1.000000, 218.000000)">
                    <g id="Group" transform="translate(21.000000, 112.000000)">
                        <use id="Shape" mask="url(#mask-2)" xlink:href="#path-1"></use>
                    </g>
                </g>
            </g>
        </g>
    </g>
</svg>