<?xml version="1.0" encoding="utf-8"?>
<!-- Generator: Adobe Illustrator 17.0.0, SVG Export Plug-In . SVG Version: 6.00 Build 0)  -->
<!DOCTYPE svg PUBLIC "-//W3C//DTD SVG 1.1//EN" "http://www.w3.org/Graphics/SVG/1.1/DTD/svg11.dtd">
<svg version="1.1" id="Calque_1" xmlns="http://www.w3.org/2000/svg" xmlns:xlink="http://www.w3.org/1999/xlink" x="0px" y="0px"
	 width="300px" height="300px" viewBox="0 0 300 300" enable-background="new 0 0 300 300" xml:space="preserve">
<g display="none">
	<g display="inline">
		<path fill="#FCEA37" d="M121.576,288.013c-1.113,0-2.098-0.102-3.011-0.309c-4.346-0.988-8.651-4.588-13.208-8.399
			c-4.031-3.37-8.2-6.855-13.16-9.249c-5.064-2.443-10.458-3.558-15.673-4.637c-5.757-1.19-11.195-2.314-14.568-5.008
			c-3.401-2.716-5.706-7.782-8.146-13.146c-2.201-4.837-4.477-9.84-7.969-14.213c-3.469-4.345-7.825-7.655-12.037-10.856
			c-4.708-3.578-9.154-6.958-11.064-10.916c-1.853-3.841-1.737-9.372-1.614-15.229c0.112-5.344,0.228-10.869-1.027-16.39
			c-1.21-5.325-3.667-10.139-6.042-14.795c-2.711-5.312-5.271-10.331-5.271-14.866c0-4.536,2.56-9.554,5.27-14.868
			c2.375-4.656,4.831-9.471,6.041-14.796c1.255-5.521,1.139-11.047,1.026-16.392c-0.124-5.856-0.24-11.387,1.613-15.228
			c1.91-3.959,6.357-7.339,11.065-10.918c4.211-3.201,8.566-6.511,12.035-10.855c3.492-4.373,5.768-9.375,7.968-14.211
			c2.441-5.364,4.747-10.432,8.148-13.147c3.373-2.693,8.811-3.817,14.568-5.007c5.216-1.078,10.61-2.193,15.674-4.636
			c4.96-2.393,9.129-5.877,13.16-9.248c4.559-3.811,8.864-7.41,13.21-8.397c0.913-0.208,1.898-0.309,3.011-0.309
			c3.538,0,7.664,1.034,12.032,2.129c5.235,1.312,10.649,2.669,16.393,2.669c5.743,0,11.155-1.356,16.39-2.668
			c4.369-1.095,8.495-2.129,12.032-2.129c1.114,0,2.1,0.101,3.013,0.309c4.346,0.988,8.65,4.588,13.209,8.399
			c4.031,3.371,8.2,6.856,13.16,9.25c5.063,2.443,10.458,3.559,15.675,4.637c5.757,1.19,11.194,2.315,14.565,5.007
			c3.402,2.716,5.707,7.783,8.147,13.147c2.201,4.837,4.478,9.839,7.97,14.212c3.469,4.344,7.823,7.654,12.035,10.855
			c4.708,3.578,9.155,6.958,11.065,10.917c1.853,3.839,1.736,9.37,1.614,15.226c-0.112,5.344-0.229,10.871,1.027,16.392
			c1.21,5.324,3.666,10.139,6.041,14.794c2.71,5.313,5.271,10.331,5.271,14.867c0,4.535-2.561,9.553-5.271,14.866
			c-2.375,4.655-4.831,9.469-6.042,14.793c-1.255,5.521-1.14,11.046-1.028,16.39c0.122,5.856,0.237,11.388-1.616,15.228
			c-1.91,3.959-6.357,7.338-11.065,10.916c-4.212,3.201-8.567,6.512-12.037,10.855c-3.492,4.373-5.768,9.375-7.969,14.212
			c-2.44,5.364-4.745,10.431-8.146,13.146c-3.372,2.694-8.81,3.818-14.566,5.009c-5.217,1.079-10.61,2.194-15.673,4.638
			c-4.961,2.394-9.129,5.88-13.16,9.251c-4.557,3.812-8.861,7.411-13.206,8.399c-0.914,0.208-1.899,0.309-3.014,0.309
			c-3.538,0-7.663-1.033-12.031-2.128c-5.234-1.312-10.646-2.668-16.389-2.668c-5.744,0-11.157,1.356-16.393,2.669
			C129.239,286.979,125.113,288.012,121.576,288.013z"/>
		<path fill="#CD242E" d="M121.575,19.987c2.551,0,6.211,0.918,10.087,1.889c5.44,1.364,11.607,2.909,18.339,2.909
			c6.73,0,12.896-1.545,18.336-2.908c3.876-0.971,7.537-1.889,10.088-1.889c0.501,0,0.918,0.037,1.238,0.11
			c2.466,0.561,6.389,3.841,9.85,6.735c4.2,3.512,8.961,7.493,14.816,10.318c5.953,2.872,12.104,4.144,17.53,5.266
			c4.368,0.903,9.319,1.927,11.195,3.425c1.904,1.521,4.004,6.136,5.857,10.208c2.291,5.035,4.888,10.742,8.999,15.891
			c4.089,5.12,9.06,8.899,13.446,12.232c3.574,2.717,7.626,5.796,8.701,8.024c1.02,2.113,0.914,7.144,0.821,11.583
			c-0.116,5.556-0.248,11.853,1.224,18.332c1.432,6.298,4.239,11.801,6.716,16.656c2.162,4.237,4.397,8.619,4.397,11.232
			c0,2.612-2.235,6.993-4.397,11.23c-2.477,4.855-5.285,10.358-6.717,16.655c-1.473,6.478-1.342,12.775-1.226,18.33
			c0.093,4.439,0.198,9.471-0.822,11.584c-1.075,2.228-5.126,5.306-8.7,8.022c-4.387,3.334-9.359,7.112-13.448,12.233
			c-4.112,5.149-6.709,10.856-9,15.892c-1.853,4.072-3.952,8.687-5.857,10.208c-1.876,1.498-6.826,2.522-11.194,3.425
			c-5.427,1.122-11.577,2.394-17.53,5.267c-5.854,2.825-10.614,6.806-14.814,10.319c-3.461,2.894-7.383,6.174-9.848,6.735
			c-0.316,0.072-0.744,0.11-1.239,0.11c-2.551,0-6.211-0.917-10.087-1.888c-5.439-1.363-11.604-2.908-18.334-2.908
			c-6.731,0-12.897,1.545-18.337,2.909c-3.876,0.971-7.536,1.889-10.087,1.889c-0.502,0-0.919-0.037-1.239-0.11
			c-2.467-0.561-6.39-3.841-9.851-6.735c-4.2-3.512-8.961-7.492-14.815-10.317c-5.953-2.872-12.104-4.144-17.53-5.266
			c-4.368-0.903-9.319-1.927-11.195-3.425c-1.905-1.521-4.004-6.136-5.857-10.208c-2.291-5.035-4.887-10.742-8.999-15.891
			c-4.089-5.121-9.06-8.899-13.447-12.233c-3.574-2.717-7.625-5.796-8.7-8.024c-1.02-2.113-0.914-7.145-0.821-11.584
			c0.116-5.556,0.248-11.853-1.225-18.331c-1.432-6.298-4.239-11.802-6.716-16.657c-2.162-4.237-4.397-8.619-4.397-11.231
			c0-2.613,2.235-6.995,4.397-11.233c2.477-4.856,5.284-10.359,6.715-16.658c1.472-6.479,1.34-12.777,1.223-18.333
			c-0.093-4.439-0.199-9.471,0.82-11.584c1.075-2.229,5.127-5.308,8.701-8.026c4.386-3.334,9.357-7.113,13.445-12.233
			c4.111-5.149,6.707-10.855,8.998-15.89c1.853-4.072,3.953-8.688,5.858-10.209c1.876-1.498,6.827-2.521,11.195-3.424
			c5.427-1.122,11.577-2.393,17.531-5.265c5.854-2.824,10.615-6.804,14.815-10.315c3.462-2.894,7.385-6.174,9.853-6.735
			C120.652,20.025,121.08,19.987,121.575,19.987 M121.575,3.987c-1.619,0-3.217,0.151-4.784,0.507
			c-10.733,2.439-18.39,13.57-28.073,18.241c-9.844,4.748-23.303,3.846-31.758,10.596c-8.496,6.784-10.592,20.123-17.376,28.619
			c-6.751,8.455-19.306,13.447-24.054,23.29c-4.671,9.684-0.796,22.589-3.235,33.323C9.933,128.958,0.785,138.89,0.785,150
			c0,11.109,9.148,21.04,11.512,31.435c2.44,10.732-1.434,23.637,3.238,33.321c4.749,9.842,17.303,14.833,24.055,23.288
			c6.784,8.496,8.879,21.835,17.375,28.619c8.454,6.751,21.913,5.85,31.756,10.599c9.683,4.672,17.339,15.804,28.072,18.244
			c1.568,0.356,3.164,0.508,4.785,0.508c9.125,0,18.989-4.798,28.423-4.798c9.433,0,19.295,4.796,28.42,4.796
			c1.621,0,3.22-0.152,4.788-0.508c10.731-2.441,18.386-13.573,28.068-18.246c9.842-4.749,23.301-3.848,31.755-10.6
			c8.495-6.784,10.591-20.123,17.375-28.618c6.751-8.454,19.307-13.444,24.056-23.286c4.673-9.683,0.8-22.589,3.24-33.32
			c2.364-10.394,11.513-20.325,11.513-31.434c0-11.11-9.148-21.041-11.511-31.435c-2.44-10.733,1.435-23.638-3.237-33.321
			c-4.749-9.843-17.304-14.834-24.055-23.288c-6.784-8.496-8.88-21.835-17.376-28.618c-8.455-6.751-21.914-5.849-31.756-10.598
			c-9.683-4.672-17.339-15.804-28.072-18.244c-1.568-0.357-3.165-0.508-4.786-0.508C169.297,3.989,159.433,8.785,150,8.785
			C140.564,8.785,130.701,3.987,121.575,3.987L121.575,3.987z"/>
	</g>
</g>
<g>
	<path fill="#FCEA37" d="M150,291.57c-1.819-1.07-5.098-5.441-7.113-8.128c-4.66-6.213-9.479-12.637-16.656-14.057
		c-0.974-0.193-1.991-0.291-3.021-0.291c-6.306,0-12.339,3.569-18.173,7.021c-2.723,1.611-7.124,4.215-9.24,4.646
		c-1.219-1.775-2.519-6.865-3.323-10.015c-1.937-7.581-3.939-15.421-10.079-19.532c-2.934-1.965-6.623-2.919-11.277-2.919
		c-3.512,0-7.189,0.521-10.745,1.026c-3.141,0.446-6.107,0.867-8.482,0.867c-0.964,0-1.586-0.072-1.964-0.142
		c-0.427-2.105,0.302-7.238,0.753-10.419c1.105-7.786,2.249-15.837-1.892-22.021c-4.111-6.141-11.951-8.144-19.533-10.079
		c-3.152-0.806-8.248-2.107-10.02-3.327c0.418-2.083,3.032-6.501,4.65-9.236c4.024-6.803,8.186-13.837,6.73-21.195
		c-1.419-7.177-7.844-11.996-14.057-16.656C13.872,155.099,9.5,151.819,8.43,150c1.07-1.819,5.442-5.098,8.127-7.113
		c6.213-4.66,12.637-9.479,14.057-16.656c1.456-7.358-2.706-14.393-6.73-21.195c-1.619-2.736-4.232-7.153-4.65-9.237
		c1.771-1.22,6.867-2.521,10.02-3.327c7.582-1.937,15.421-3.939,19.533-10.079c4.14-6.185,2.997-14.236,1.892-22.022
		c-0.451-3.18-1.18-8.312-0.753-10.418c0.377-0.07,1-0.142,1.964-0.142c2.375,0,5.342,0.421,8.483,0.867
		c3.556,0.505,7.233,1.027,10.745,1.027c4.654,0,8.343-0.955,11.277-2.918c6.14-4.111,8.143-11.951,10.079-19.533
		c0.804-3.149,2.104-8.239,3.323-10.015c2.117,0.432,6.517,3.035,9.239,4.645c5.834,3.452,11.867,7.021,18.173,7.021
		c1.031,0,2.048-0.098,3.022-0.291c7.177-1.419,11.996-7.844,16.656-14.057c2.015-2.686,5.294-7.058,7.113-8.127
		c1.819,1.07,5.099,5.442,7.112,8.127c4.66,6.213,9.479,12.637,16.656,14.057c0.975,0.192,1.991,0.29,3.022,0.29
		c6.306,0,12.339-3.569,18.173-7.021c2.723-1.611,7.125-4.215,9.24-4.646c1.219,1.775,2.52,6.866,3.324,10.016
		c1.937,7.581,3.938,15.421,10.079,19.532c2.934,1.964,6.622,2.919,11.276,2.919c3.512,0,7.188-0.522,10.745-1.027
		c3.141-0.446,6.107-0.867,8.483-0.867c0.963,0,1.586,0.072,1.963,0.142c0.428,2.105-0.301,7.239-0.753,10.419
		c-1.105,7.786-2.248,15.837,1.893,22.021c4.11,6.14,11.95,8.143,19.532,10.079c3.151,0.805,8.247,2.106,10.019,3.327
		c-0.418,2.083-3.031,6.501-4.65,9.237c-4.023,6.802-8.186,13.836-6.729,21.194c1.42,7.178,7.844,11.996,14.057,16.656
		c2.687,2.015,7.058,5.294,8.128,7.113c-1.07,1.819-5.441,5.098-8.128,7.112c-6.213,4.66-12.637,9.479-14.057,16.656
		c-1.456,7.358,2.706,14.393,6.73,21.194c1.618,2.736,4.232,7.154,4.649,9.238c-1.771,1.22-6.867,2.521-10.021,3.327
		c-7.581,1.937-15.42,3.938-19.531,10.078c-4.141,6.185-2.998,14.236-1.893,22.022c0.451,3.18,1.181,8.313,0.753,10.419
		c-0.378,0.069-1,0.142-1.964,0.142c-2.375,0-5.342-0.421-8.482-0.867c-3.556-0.505-7.233-1.026-10.745-1.026
		c-4.654,0-8.343,0.954-11.276,2.919c-6.141,4.11-8.144,11.95-10.079,19.532c-0.805,3.149-2.104,8.238-3.324,10.014
		c-2.117-0.431-6.518-3.034-9.24-4.645c-5.834-3.452-11.866-7.021-18.173-7.021c-1.03,0-2.047,0.098-3.021,0.291
		c-7.178,1.42-11.997,7.844-16.657,14.057C155.098,286.129,151.819,290.5,150,291.57z"/>
	<path fill="#CD242E" d="M150,20.409c0.25,0.331,0.489,0.651,0.713,0.949c5.043,6.723,11.318,15.09,21.504,17.105
		c1.484,0.294,3.023,0.442,4.574,0.442c8.495,0,15.801-4.322,22.246-8.135c0.173-0.103,0.354-0.209,0.539-0.319
		c0.07,0.271,0.136,0.533,0.2,0.783c2.092,8.192,4.696,18.387,13.38,24.201c4.293,2.874,9.438,4.271,15.728,4.271
		c4.077,0,8.217-0.588,11.87-1.106c0.251-0.036,0.503-0.071,0.754-0.107c-0.037,0.261-0.073,0.514-0.107,0.755
		c-1.193,8.407-2.679,18.869,3.165,27.597c5.814,8.684,16.009,11.288,24.201,13.38c0.25,0.064,0.511,0.131,0.782,0.2
		c-0.109,0.185-0.216,0.365-0.318,0.538c-4.34,7.336-9.742,16.466-7.693,26.821c2.015,10.185,10.382,16.461,17.104,21.503
		c0.298,0.224,0.618,0.463,0.949,0.713c-0.331,0.25-0.651,0.489-0.949,0.713c-6.723,5.043-15.09,11.318-17.104,21.503
		c-2.048,10.355,3.353,19.485,7.693,26.821c0.103,0.173,0.209,0.353,0.319,0.539c-0.271,0.069-0.533,0.136-0.783,0.2
		c-8.192,2.092-18.387,4.696-24.201,13.38c-5.844,8.729-4.358,19.191-3.165,27.597c0.034,0.241,0.07,0.494,0.107,0.755
		c-0.252-0.036-0.505-0.071-0.756-0.107c-3.652-0.518-7.792-1.106-11.867-1.106c-6.29,0-11.435,1.397-15.729,4.271
		c-8.684,5.814-11.288,16.009-13.38,24.201c-0.064,0.25-0.131,0.512-0.2,0.782c-0.186-0.11-0.366-0.216-0.539-0.319
		c-6.445-3.813-13.75-8.134-22.244-8.136c-1.551,0-3.09,0.149-4.577,0.442c-10.185,2.015-16.461,10.382-21.503,17.104
		c-0.224,0.298-0.463,0.618-0.713,0.949c-0.25-0.331-0.489-0.651-0.713-0.949c-5.043-6.723-11.318-15.09-21.504-17.105
		c-1.484-0.294-3.023-0.442-4.573-0.442c-8.496-0.001-15.802,4.322-22.248,8.136c-0.173,0.103-0.353,0.209-0.539,0.318
		c-0.069-0.271-0.136-0.533-0.2-0.782c-2.092-8.192-4.696-18.387-13.38-24.201c-4.293-2.874-9.438-4.271-15.728-4.271
		c-4.076,0-8.216,0.588-11.869,1.106c-0.251,0.036-0.503,0.071-0.755,0.107c0.037-0.261,0.073-0.514,0.107-0.755
		c1.193-8.406,2.679-18.869-3.165-27.597c-5.814-8.684-16.009-11.288-24.201-13.38c-0.25-0.064-0.512-0.131-0.782-0.2
		c0.109-0.185,0.216-0.365,0.318-0.539c4.34-7.336,9.742-16.465,7.693-26.821c-2.015-10.185-10.382-16.461-17.104-21.503
		c-0.298-0.224-0.618-0.463-0.949-0.713c0.331-0.25,0.651-0.489,0.949-0.713c6.723-5.043,15.09-11.318,17.104-21.503
		c2.048-10.355-3.353-19.485-7.693-26.821c-0.103-0.173-0.209-0.353-0.319-0.539c0.271-0.069,0.533-0.136,0.783-0.2
		c8.192-2.092,18.387-4.696,24.201-13.38c5.844-8.729,4.358-19.191,3.165-27.597c-0.034-0.241-0.07-0.494-0.107-0.755
		c0.252,0.036,0.504,0.071,0.755,0.107c3.653,0.519,7.793,1.106,11.87,1.106c6.29,0,11.434-1.397,15.728-4.271
		c8.684-5.814,11.288-16.009,13.38-24.201c0.064-0.249,0.131-0.512,0.2-0.782c0.185,0.109,0.365,0.216,0.538,0.318
		c6.446,3.814,13.752,8.136,22.247,8.136c1.55,0,3.089-0.149,4.574-0.442c10.185-2.015,16.461-10.382,21.503-17.104
		C149.511,21.06,149.75,20.74,150,20.409 M150,0.298c-9.329,0-16.504,20.724-25.321,22.468c-0.476,0.094-0.965,0.138-1.469,0.138
		c-8.195,0-19.901-11.728-27.939-11.728c-0.908,0-1.771,0.15-2.575,0.483c-8.505,3.527-7.192,25.416-14.752,30.477
		c-1.743,1.167-4.12,1.567-6.827,1.567c-5.891,0-13.345-1.894-19.228-1.894c-3.226,0-5.98,0.57-7.744,2.334
		c-6.459,6.458,3.093,26.181-2.007,33.798c-5.061,7.56-26.951,6.247-30.478,14.752c-3.466,8.359,12.903,22.899,11.106,31.984
		C21.023,133.496,0.298,140.671,0.298,150c0,9.329,20.724,16.504,22.468,25.321c1.797,9.085-14.572,23.625-11.106,31.984
		c3.527,8.505,25.416,7.192,30.477,14.752c5.1,7.618-4.452,27.34,2.006,33.798c1.764,1.764,4.517,2.334,7.744,2.334
		c5.882,0,13.337-1.894,19.227-1.894c2.707,0,5.084,0.4,6.827,1.567c7.56,5.061,6.247,26.951,14.752,30.478
		c0.805,0.334,1.666,0.483,2.575,0.483c8.039,0,19.745-11.728,27.939-11.728c0.503,0,0.994,0.044,1.469,0.138
		c8.817,1.744,15.992,22.468,25.321,22.468c9.329,0,16.504-20.724,25.321-22.468c0.476-0.094,0.965-0.138,1.469-0.138
		c8.195,0.001,19.901,11.728,27.939,11.728c0.908,0,1.771-0.15,2.575-0.483c8.505-3.527,7.192-25.416,14.752-30.477
		c1.744-1.167,4.119-1.567,6.827-1.567c5.891,0,13.346,1.894,19.228,1.894c3.226,0,5.98-0.57,7.744-2.334
		c6.459-6.458-3.093-26.181,2.007-33.798c5.061-7.56,26.951-6.247,30.478-14.752c3.466-8.359-12.903-22.899-11.106-31.984
		c1.744-8.817,22.468-15.992,22.468-25.321c0-9.329-20.724-16.504-22.468-25.321c-1.797-9.085,14.572-23.625,11.106-31.984
		c-3.527-8.505-25.416-7.192-30.477-14.752c-5.1-7.618,4.452-27.34-2.007-33.798c-1.764-1.764-4.517-2.334-7.744-2.334
		c-5.882,0-13.337,1.894-19.227,1.894c-2.707,0-5.084-0.4-6.827-1.567c-7.56-5.061-6.247-26.951-14.752-30.478
		c-0.805-0.334-1.666-0.484-2.575-0.484c-8.039,0-19.745,11.728-27.939,11.728c-0.503,0-0.994-0.044-1.469-0.138
		C166.504,21.023,159.329,0.298,150,0.298L150,0.298z"/>
</g>
<path fill="#CE232D" d="M193.628,182.809c-11.643,0-21.114,9.472-21.114,21.114s9.472,21.115,21.114,21.115
	s21.114-9.473,21.114-21.115S205.27,182.809,193.628,182.809z"/>
<path fill="#CE232D" d="M112.388,79.592c-11.643,0-21.114,9.472-21.114,21.114s9.472,21.114,21.114,21.114
	s21.114-9.472,21.114-21.114S124.03,79.592,112.388,79.592z"/>
<line fill="none" stroke="#CD242E" stroke-width="16" stroke-linecap="round" stroke-miterlimit="10" x1="100.747" y1="215.389" x2="205.093" y2="89.066"/>
</svg>
