<?xml version="1.0" encoding="UTF-8" standalone="no"?>
<svg width="22px" height="22px" viewBox="0 0 22 22" version="1.1" xmlns="http://www.w3.org/2000/svg" xmlns:xlink="http://www.w3.org/1999/xlink">
    <!-- Generator: Sketch 40.1 (33804) - http://www.bohemiancoding.com/sketch -->
    <title>search</title>
    <desc>Created with Sketch.</desc>
    <defs></defs>
    <g id="Page-1" stroke="none" stroke-width="1" fill="none" fill-rule="evenodd">
        <g id="Dashboard" transform="translate(-301.000000, -30.000000)" fill="#343E41">
            <g id="HEADER" transform="translate(273.000000, 0.000000)">
                <g id="Recherche" transform="translate(28.000000, 30.000000)">
                    <g id="search">
                        <path d="M21.5677648,21.566553 C20.9575159,22.1783666 19.9670349,22.1783666 19.3552213,21.566553 L14.817473,17.0288047 C11.1512853,19.6372276 6.04553615,19.3227147 2.75801575,16.0336296 C-0.908171917,12.3674419 -0.908171917,6.42299164 2.75801575,2.75680397 C6.42576816,-0.907818954 12.3702184,-0.907818954 16.0364061,2.75680397 C19.3239265,6.04432437 19.6384394,11.1500736 17.0300165,14.8162612 L21.5677648,19.3524448 C22.1795784,19.9642584 22.1795784,20.9547393 21.5677648,21.566553 L21.5677648,21.566553 Z M13.8222979,4.97091219 C11.3781728,2.52522234 7.41624908,2.52522234 4.97212397,4.97091219 C2.52643411,7.41347256 2.52643411,11.3753962 4.97212397,13.8210861 C7.41624908,16.2652112 11.3781728,16.2652112 13.8222979,13.8210861 C16.2679877,11.3753962 16.2679877,7.41347256 13.8222979,4.97091219 L13.8222979,4.97091219 Z" id="Shape"></path>
                    </g>
                </g>
            </g>
        </g>
    </g>
</svg>