<?xml version="1.0" encoding="UTF-8" standalone="no"?>
<svg width="24px" height="29px" viewBox="0 0 24 29" version="1.1" xmlns="http://www.w3.org/2000/svg" xmlns:xlink="http://www.w3.org/1999/xlink">
    <!-- Generator: Sketch 40.1 (33804) - http://www.bohemiancoding.com/sketch -->
    <title>Surgelé</title>
    <desc>Created with Sketch.</desc>
    <defs></defs>
    <g id="DASHBOARD" stroke="none" stroke-width="1" fill="none" fill-rule="evenodd">
        <g id="Dashboard" transform="translate(-563.000000, -157.000000)" fill="#FFFFFF">
            <g id="PROCHAINES-LIVRAISONS" transform="translate(293.000000, 96.000000)">
                <g id="Group-9" transform="translate(258.000000, 52.000000)">
                    <g id="Surgelé" transform="translate(12.129032, 9.096774)">
                        <path d="M22.8383647,19.6039527 L20.5371393,18.1912489 L21.4992782,17.6003629 C21.970243,17.3108412 22.1313317,16.6707147 21.8592383,16.1689602 C21.5868519,15.667829 20.9852588,15.4961106 20.5137082,15.7853206 L18.566585,16.9814285 L16.9943592,16.0146941 L16.9943592,12.0343163 L18.5671708,11.0678935 L20.5137082,12.2636898 C20.984673,12.5532115 21.5874377,12.3808697 21.859824,11.8797385 C22.1319175,11.3786073 21.9708288,10.7375459 21.499864,10.4480242 L20.538018,9.85713817 L22.8383647,8.44381111 C23.3093295,8.15428943 23.4707111,7.51322796 23.1989106,7.01178513 C22.9265242,6.51034229 22.3243453,6.33862384 21.8527947,6.62814552 L19.5521551,8.04147258 L19.5527408,6.85970054 C19.5527408,6.28096882 19.1116507,5.81193746 18.5677566,5.81193746 C18.0238625,5.81193746 17.5821866,6.28096882 17.5821866,6.86001219 L17.5821866,9.25191631 L16.009375,10.2183391 L12.7700275,8.22846183 L12.7700275,6.29530466 L14.7165649,5.09919677 C15.1875297,4.80967509 15.3483255,4.16861362 15.0765249,3.66748244 C14.8044315,3.16603961 14.2022526,2.99432115 13.730702,3.28384283 L12.7691488,3.87472885 L12.7691488,1.04807473 C12.7700275,0.469343011 12.3283515,0 11.7847504,0 C11.2408563,0 10.7997661,0.469343011 10.7997661,1.04807473 L10.7997661,3.8750405 L9.83792009,3.28415448 C9.36666239,2.9946328 8.7644835,3.1666629 8.49268292,3.66779409 C8.22058944,4.16892527 8.38167815,4.81029839 8.85264296,5.09950842 L10.7994732,6.29561631 L10.7994732,8.22877348 L7.55983284,10.2189624 L5.98643548,9.25222796 L5.98643548,6.86032384 C5.98643548,6.28159211 5.54505242,5.8122491 5.00115836,5.8122491 C4.4572643,5.8122491 4.01588123,6.28096882 4.01588123,6.86001219 L4.01617412,8.04209588 L1.71553446,6.62845717 C1.24427676,6.33893548 0.641804985,6.51096559 0.36971151,7.01209677 C0.0976180352,7.51322796 0.259292522,8.15460108 0.730257331,8.44412276 L3.03118988,9.85776147 L2.06905095,10.4480242 C1.59808614,10.7375459 1.43699743,11.3782957 1.70909091,11.8797385 C1.98118438,12.3808697 2.58365616,12.5532115 3.05462097,12.2636898 L5.00115836,11.0678935 L6.57543438,12.0349396 L6.57543438,16.0140708 L5.00174413,16.9808052 L3.05462097,15.7853206 C2.58365616,15.4954873 1.98118438,15.667829 1.70909091,16.1689602 C1.43699743,16.6700914 1.59837903,17.3111529 2.06934384,17.6003629 L3.03148277,18.1912489 L0.730843109,19.6048876 C0.259585411,19.8944093 0.0982038123,20.5351591 0.370297287,21.0369136 C0.642390762,21.5383565 1.24486254,21.7097633 1.71612023,21.4202416 L4.0167599,20.0062912 L4.0167599,21.1886866 C4.0167599,21.7671066 4.45755718,22.2364496 5.00145125,22.2364496 C5.54534531,22.2364496 5.98672837,21.7671066 5.98672837,21.1886866 L5.98702126,18.7961591 L7.56129729,17.8291131 L10.7997661,19.819302 L10.7997661,21.7518358 L8.85293585,22.9482554 C8.38197104,23.2377771 8.22088233,23.8788385 8.49297581,24.3802814 C8.76506928,24.8817242 9.36695528,25.0534427 9.83821298,24.7636093 L10.800059,24.1727233 L10.800059,26.9993774 C10.800059,27.5781091 11.2411492,28.0474522 11.7850433,28.0474522 C12.3289373,28.0474522 12.7703204,27.5781091 12.7703204,26.9993774 L12.7703204,24.1727233 L13.7315806,24.7636093 C14.2025455,25.0534427 14.8053101,24.8814125 15.0774036,24.3802814 C15.3492042,23.8794618 15.1884084,23.2377771 14.7174435,22.9482554 L12.7709062,21.7518358 L12.7709062,19.819302 L16.0096679,17.8291131 L17.5827724,18.7961591 L17.5830652,21.1883749 C17.5830652,21.7671066 18.0247412,22.2364496 18.5686353,22.2364496 C19.1125293,22.2364496 19.5530337,21.7671066 19.5530337,21.1883749 L19.5524479,20.0062912 L21.8530876,21.4196183 C22.3237595,21.7094516 22.9274029,21.5371099 23.1997892,21.0362903 C23.4712969,20.5354708 23.3096224,19.893786 22.8383647,19.6039527 L22.8383647,19.6039527 Z M15.0246837,16.0137591 L11.7847504,18.0045713 L8.54598864,16.0137591 L8.54598864,12.0343163 L11.7847504,10.0441274 L15.0246837,12.0343163 L15.0246837,16.0137591 L15.0246837,16.0137591 Z" id="Shape"></path>
                    </g>
                </g>
            </g>
        </g>
    </g>
</svg>